solid
  facet normal 0.697972 -0.0161103 -0.715944
    outer loop
      vertex 0.00134164 -0.00067082 -0.06
      vertex 0.0121564 0.021125 -0.0499472
      vertex 0.0170897 0.0158434 -0.0450189
    endloop
  endfacet
  facet normal 0.726308 -0.687345 -0.00580154
    outer loop
      vertex 0.00134164 -0.00067082 -0.06
      vertex 0.0170897 0.0158434 -0.0450189
      vertex 0.00118017 -0.000925844 -0.05
    endloop
  endfacet
  facet normal -0.875328 0.483527 0.0018025
    outer loop
      vertex 0.00984363 0.020875 -0.0480528
      vertex -0.00134164 0.00067082 -0.06
      vertex -0.00118017 0.000925844 -0.05
    endloop
  endfacet
  facet normal -0.568122 0.23702 0.788073
    outer loop
      vertex 0.00984363 0.020875 -0.0480528
      vertex -0.00118017 0.000925844 -0.05
      vertex 0.0149103 0.0161566 -0.0429811
    endloop
  endfacet
  facet normal 0.170771 0.341541 -0.924222
    outer loop
      vertex 0.0121564 0.021125 -0.0499472
      vertex 0.00134164 -0.00067082 -0.06
      vertex -0.00134164 0.00067082 -0.06
    endloop
  endfacet
  facet normal -0.531994 0.629436 -0.566386
    outer loop
      vertex 0.0121564 0.021125 -0.0499472
      vertex -0.00134164 0.00067082 -0.06
      vertex 0.00984363 0.020875 -0.0480528
    endloop
  endfacet
  facet normal 0.314385 0.549805 -0.773872
    outer loop
      vertex 0.0125314 0.0340362 -0.0339455
      vertex 0.029866 0.029866 -0.029866
      vertex 0.0170897 0.0158434 -0.0450189
    endloop
  endfacet
  facet normal 0.825534 0.4296 -0.365975
    outer loop
      vertex 0.0125314 0.0340362 -0.0339455
      vertex 0.0170897 0.0158434 -0.0450189
      vertex 0.0121564 0.021125 -0.0499472
    endloop
  endfacet
  facet normal -0.308622 -0.766793 0.562832
    outer loop
      vertex 0.028134 0.028134 -0.028134
      vertex 0.0114686 0.0319638 -0.0320545
      vertex 0.00984363 0.020875 -0.0480528
    endloop
  endfacet
  facet normal -0.727521 -0.045386 0.684582
    outer loop
      vertex 0.028134 0.028134 -0.028134
      vertex 0.00984363 0.020875 -0.0480528
      vertex 0.0149103 0.0161566 -0.0429811
    endloop
  endfacet
  facet normal -0.509629 0.675406 -0.533015
    outer loop
      vertex 0.0125314 0.0340362 -0.0339455
      vertex 0.0121564 0.021125 -0.0499472
      vertex 0.00984363 0.020875 -0.0480528
    endloop
  endfacet
  facet normal -0.927772 0.344124 -0.144285
    outer loop
      vertex 0.0125314 0.0340362 -0.0339455
      vertex 0.00984363 0.020875 -0.0480528
      vertex 0.0114686 0.0319638 -0.0320545
    endloop
  endfacet
  facet normal 0.316068 0.76529 -0.560743
    outer loop
      vertex 0.0158434 0.0450189 -0.0170897
      vertex 0.029866 0.029866 -0.029866
      vertex 0.0125314 0.0340362 -0.0339455
    endloop
  endfacet
  facet normal -0.337959 0.81754 -0.466274
    outer loop
      vertex 0.0158434 0.0450189 -0.0170897
      vertex 0.0125314 0.0340362 -0.0339455
      vertex 0.0105753 0.04005 -0.0219834
    endloop
  endfacet
  facet normal -0.0515508 -0.687084 0.724747
    outer loop
      vertex 0.028134 0.028134 -0.028134
      vertex 0.0161566 0.0429811 -0.0149103
      vertex 0.0114247 0.03795 -0.0200166
    endloop
  endfacet
  facet normal -0.296454 -0.85558 0.424379
    outer loop
      vertex 0.028134 0.028134 -0.028134
      vertex 0.0114247 0.03795 -0.0200166
      vertex 0.0114686 0.0319638 -0.0320545
    endloop
  endfacet
  facet normal -0.934308 0.232894 -0.269867
    outer loop
      vertex 0.0105753 0.04005 -0.0219834
      vertex 0.0125314 0.0340362 -0.0339455
      vertex 0.0114686 0.0319638 -0.0320545
    endloop
  endfacet
  facet normal -0.955377 -0.265865 0.128723
    outer loop
      vertex 0.0105753 0.04005 -0.0219834
      vertex 0.0114686 0.0319638 -0.0320545
      vertex 0.0114247 0.03795 -0.0200166
    endloop
  endfacet
  facet normal 0.549805 0.773872 -0.314385
    outer loop
      vertex 0.0340362 0.0339455 -0.0125314
      vertex 0.029866 0.029866 -0.029866
      vertex 0.0158434 0.0450189 -0.0170897
    endloop
  endfacet
  facet normal 0.4296 0.365975 -0.825534
    outer loop
      vertex 0.0340362 0.0339455 -0.0125314
      vertex 0.0158434 0.0450189 -0.0170897
      vertex 0.021125 0.0499472 -0.0121564
    endloop
  endfacet
  facet normal -0.766793 -0.562832 0.308622
    outer loop
      vertex 0.028134 0.028134 -0.028134
      vertex 0.0319638 0.0320545 -0.0114686
      vertex 0.020875 0.0480528 -0.00984363
    endloop
  endfacet
  facet normal -0.045386 -0.684582 0.727521
    outer loop
      vertex 0.028134 0.028134 -0.028134
      vertex 0.020875 0.0480528 -0.00984363
      vertex 0.0161566 0.0429811 -0.0149103
    endloop
  endfacet
  facet normal 0.675406 0.533015 0.509629
    outer loop
      vertex 0.0340362 0.0339455 -0.0125314
      vertex 0.021125 0.0499472 -0.0121564
      vertex 0.020875 0.0480528 -0.00984363
    endloop
  endfacet
  facet normal 0.344124 0.144285 0.927772
    outer loop
      vertex 0.0340362 0.0339455 -0.0125314
      vertex 0.020875 0.0480528 -0.00984363
      vertex 0.0319638 0.0320545 -0.0114686
    endloop
  endfacet
  facet normal 0.76529 0.560743 -0.316068
    outer loop
      vertex 0.0450189 0.0170897 -0.0158434
      vertex 0.029866 0.029866 -0.029866
      vertex 0.0340362 0.0339455 -0.0125314
    endloop
  endfacet
  facet normal 0.81754 0.466274 0.337959
    outer loop
      vertex 0.0450189 0.0170897 -0.0158434
      vertex 0.0340362 0.0339455 -0.0125314
      vertex 0.04005 0.0219834 -0.0105753
    endloop
  endfacet
  facet normal -0.687084 -0.724747 0.0515508
    outer loop
      vertex 0.028134 0.028134 -0.028134
      vertex 0.0429811 0.0149103 -0.0161566
      vertex 0.03795 0.0200166 -0.0114247
    endloop
  endfacet
  facet normal -0.85558 -0.424379 0.296454
    outer loop
      vertex 0.028134 0.028134 -0.028134
      vertex 0.03795 0.0200166 -0.0114247
      vertex 0.0319638 0.0320545 -0.0114686
    endloop
  endfacet
  facet normal 0.232894 0.269867 0.934308
    outer loop
      vertex 0.04005 0.0219834 -0.0105753
      vertex 0.0340362 0.0339455 -0.0125314
      vertex 0.0319638 0.0320545 -0.0114686
    endloop
  endfacet
  facet normal -0.265865 -0.128723 0.955377
    outer loop
      vertex 0.04005 0.0219834 -0.0105753
      vertex 0.0319638 0.0320545 -0.0114686
      vertex 0.03795 0.0200166 -0.0114247
    endloop
  endfacet
  facet normal 0.773872 0.314385 -0.549805
    outer loop
      vertex 0.0339455 0.0125314 -0.0340362
      vertex 0.029866 0.029866 -0.029866
      vertex 0.0450189 0.0170897 -0.0158434
    endloop
  endfacet
  facet normal 0.365975 0.825534 -0.4296
    outer loop
      vertex 0.0339455 0.0125314 -0.0340362
      vertex 0.0450189 0.0170897 -0.0158434
      vertex 0.0499472 0.0121564 -0.021125
    endloop
  endfacet
  facet normal -0.562832 -0.308622 0.766793
    outer loop
      vertex 0.028134 0.028134 -0.028134
      vertex 0.0320545 0.0114686 -0.0319638
      vertex 0.0480528 0.00984363 -0.020875
    endloop
  endfacet
  facet normal -0.684582 -0.727521 0.045386
    outer loop
      vertex 0.028134 0.028134 -0.028134
      vertex 0.0480528 0.00984363 -0.020875
      vertex 0.0429811 0.0149103 -0.0161566
    endloop
  endfacet
  facet normal 0.533015 -0.509629 -0.675406
    outer loop
      vertex 0.0339455 0.0125314 -0.0340362
      vertex 0.0499472 0.0121564 -0.021125
      vertex 0.0480528 0.00984363 -0.020875
    endloop
  endfacet
  facet normal 0.144285 -0.927772 -0.344124
    outer loop
      vertex 0.0339455 0.0125314 -0.0340362
      vertex 0.0480528 0.00984363 -0.020875
      vertex 0.0320545 0.0114686 -0.0319638
    endloop
  endfacet
  facet normal 0.738866 0.0527334 -0.671786
    outer loop
      vertex 0.0219834 0.0105753 -0.04005
      vertex 0.0170897 0.0158434 -0.0450189
      vertex 0.029866 0.029866 -0.029866
    endloop
  endfacet
  facet normal 0.388606 0.300957 -0.870868
    outer loop
      vertex 0.0219834 0.0105753 -0.04005
      vertex 0.029866 0.029866 -0.029866
      vertex 0.0339455 0.0125314 -0.0340362
    endloop
  endfacet
  facet normal -0.404319 0.424865 0.809948
    outer loop
      vertex 0.0149103 0.0161566 -0.0429811
      vertex 0.0200166 0.0114247 -0.03795
      vertex 0.0320545 0.0114686 -0.0319638
    endloop
  endfacet
  facet normal -0.572526 -0.309192 0.759351
    outer loop
      vertex 0.0149103 0.0161566 -0.0429811
      vertex 0.0320545 0.0114686 -0.0319638
      vertex 0.028134 0.028134 -0.028134
    endloop
  endfacet
  facet normal 0.269867 -0.934308 -0.232894
    outer loop
      vertex 0.0219834 0.0105753 -0.04005
      vertex 0.0339455 0.0125314 -0.0340362
      vertex 0.0320545 0.0114686 -0.0319638
    endloop
  endfacet
  facet normal -0.128723 -0.955377 0.265865
    outer loop
      vertex 0.0219834 0.0105753 -0.04005
      vertex 0.0320545 0.0114686 -0.0319638
      vertex 0.0200166 0.0114247 -0.03795
    endloop
  endfacet
  facet normal 0.725425 -0.688301 0.000235477
    outer loop
      vertex 0.000968913 -0.00114508 -0.04
      vertex 0.00118017 -0.000925844 -0.05
      vertex 0.0170897 0.0158434 -0.0450189
    endloop
  endfacet
  facet normal 0.281012 -0.507328 -0.814648
    outer loop
      vertex 0.000968913 -0.00114508 -0.04
      vertex 0.0170897 0.0158434 -0.0450189
      vertex 0.0219834 0.0105753 -0.04005
    endloop
  endfacet
  facet normal -0.439057 0.898399 -0.0104205
    outer loop
      vertex -0.00118017 0.000925844 -0.05
      vertex -0.000968913 0.00114508 -0.04
      vertex 0.0200166 0.0114247 -0.03795
    endloop
  endfacet
  facet normal -0.565044 0.232074 0.79175
    outer loop
      vertex -0.00118017 0.000925844 -0.05
      vertex 0.0200166 0.0114247 -0.03795
      vertex 0.0149103 0.0161566 -0.0429811
    endloop
  endfacet
  facet normal 0.379553 -0.677848 0.629652
    outer loop
      vertex 0.000968913 -0.00114508 -0.04
      vertex 0.0219834 0.0105753 -0.04005
      vertex 0.0200166 0.0114247 -0.03795
    endloop
  endfacet
  facet normal -0.068781 -0.0581993 0.995933
    outer loop
      vertex 0.000968913 -0.00114508 -0.04
      vertex 0.0200166 0.0114247 -0.03795
      vertex -0.000968913 0.00114508 -0.04
    endloop
  endfacet
  facet normal 0.324339 -0.502273 0.801577
    outer loop
      vertex 0.000968913 -0.00114508 -0.04
      vertex -0.0200166 -0.0114247 -0.03795
      vertex -0.0149103 -0.0161566 -0.0429811
    endloop
  endfacet
  facet normal 0.687111 -0.726551 -0.00141252
    outer loop
      vertex 0.000968913 -0.00114508 -0.04
      vertex -0.0149103 -0.0161566 -0.0429811
      vertex 0.00118017 -0.000925844 -0.05
    endloop
  endfacet
  facet normal -0.487057 0.873325 -0.00885674
    outer loop
      vertex -0.0219834 -0.0105753 -0.04005
      vertex -0.000968913 0.00114508 -0.04
      vertex -0.00118017 0.000925844 -0.05
    endloop
  endfacet
  facet normal -0.531411 0.265187 -0.804536
    outer loop
      vertex -0.0219834 -0.0105753 -0.04005
      vertex -0.00118017 0.000925844 -0.05
      vertex -0.0170897 -0.0158434 -0.0450189
    endloop
  endfacet
  facet normal 0.068781 0.0581993 0.995933
    outer loop
      vertex -0.0200166 -0.0114247 -0.03795
      vertex 0.000968913 -0.00114508 -0.04
      vertex -0.000968913 0.00114508 -0.04
    endloop
  endfacet
  facet normal -0.379553 0.677848 0.629652
    outer loop
      vertex -0.0200166 -0.0114247 -0.03795
      vertex -0.000968913 0.00114508 -0.04
      vertex -0.0219834 -0.0105753 -0.04005
    endloop
  endfacet
  facet normal 0.424379 0.296454 0.85558
    outer loop
      vertex -0.0200166 -0.0114247 -0.03795
      vertex -0.0320545 -0.0114686 -0.0319638
      vertex -0.028134 -0.028134 -0.028134
    endloop
  endfacet
  facet normal 0.724747 0.0515508 0.687084
    outer loop
      vertex -0.0200166 -0.0114247 -0.03795
      vertex -0.028134 -0.028134 -0.028134
      vertex -0.0149103 -0.0161566 -0.0429811
    endloop
  endfacet
  facet normal -0.466274 0.337959 -0.81754
    outer loop
      vertex -0.0339455 -0.0125314 -0.0340362
      vertex -0.0219834 -0.0105753 -0.04005
      vertex -0.0170897 -0.0158434 -0.0450189
    endloop
  endfacet
  facet normal -0.560743 -0.316068 -0.76529
    outer loop
      vertex -0.0339455 -0.0125314 -0.0340362
      vertex -0.0170897 -0.0158434 -0.0450189
      vertex -0.029866 -0.029866 -0.029866
    endloop
  endfacet
  facet normal 0.128723 0.955377 0.265865
    outer loop
      vertex -0.0320545 -0.0114686 -0.0319638
      vertex -0.0200166 -0.0114247 -0.03795
      vertex -0.0219834 -0.0105753 -0.04005
    endloop
  endfacet
  facet normal -0.269867 0.934308 -0.232894
    outer loop
      vertex -0.0320545 -0.0114686 -0.0319638
      vertex -0.0219834 -0.0105753 -0.04005
      vertex -0.0339455 -0.0125314 -0.0340362
    endloop
  endfacet
  facet normal 0.390537 0.805681 0.445376
    outer loop
      vertex -0.0320545 -0.0114686 -0.0319638
      vertex -0.0480528 -0.00984363 -0.020875
      vertex -0.0429811 -0.0149103 -0.0161566
    endloop
  endfacet
  facet normal 0.74891 0.310694 0.585323
    outer loop
      vertex -0.0320545 -0.0114686 -0.0319638
      vertex -0.0429811 -0.0149103 -0.0161566
      vertex -0.028134 -0.028134 -0.028134
    endloop
  endfacet
  facet normal -0.599889 -0.317813 -0.734253
    outer loop
      vertex -0.0499472 -0.0121564 -0.021125
      vertex -0.0339455 -0.0125314 -0.0340362
      vertex -0.029866 -0.029866 -0.029866
    endloop
  endfacet
  facet normal -0.674437 -0.736037 -0.0581752
    outer loop
      vertex -0.0499472 -0.0121564 -0.021125
      vertex -0.029866 -0.029866 -0.029866
      vertex -0.0450189 -0.0170897 -0.0158434
    endloop
  endfacet
  facet normal -0.144285 0.927772 -0.344124
    outer loop
      vertex -0.0480528 -0.00984363 -0.020875
      vertex -0.0320545 -0.0114686 -0.0319638
      vertex -0.0339455 -0.0125314 -0.0340362
    endloop
  endfacet
  facet normal -0.533015 0.509629 -0.675406
    outer loop
      vertex -0.0480528 -0.00984363 -0.020875
      vertex -0.0339455 -0.0125314 -0.0340362
      vertex -0.0499472 -0.0121564 -0.021125
    endloop
  endfacet
  facet normal -0.00749037 0.685692 -0.727853
    outer loop
      vertex -0.06 0.00134164 -0.00067082
      vertex -0.05 0.00118017 -0.000925844
      vertex -0.0429811 -0.0149103 -0.0161566
    endloop
  endfacet
  facet normal 0.698633 0.715275 0.0171329
    outer loop
      vertex -0.06 0.00134164 -0.00067082
      vertex -0.0429811 -0.0149103 -0.0161566
      vertex -0.0480528 -0.00984363 -0.020875
    endloop
  endfacet
  facet normal 0.00309043 -0.895218 0.445617
    outer loop
      vertex -0.05 -0.00118017 0.000925844
      vertex -0.06 -0.00134164 0.00067082
      vertex -0.0499472 -0.0121564 -0.021125
    endloop
  endfacet
  facet normal -0.808159 -0.528025 0.260898
    outer loop
      vertex -0.05 -0.00118017 0.000925844
      vertex -0.0499472 -0.0121564 -0.021125
      vertex -0.0450189 -0.0170897 -0.0158434
    endloop
  endfacet
  facet normal -0.566386 0.531994 -0.629436
    outer loop
      vertex -0.06 0.00134164 -0.00067082
      vertex -0.0480528 -0.00984363 -0.020875
      vertex -0.0499472 -0.0121564 -0.021125
    endloop
  endfacet
  facet normal -0.924222 -0.170771 -0.341541
    outer loop
      vertex -0.06 0.00134164 -0.00067082
      vertex -0.0499472 -0.0121564 -0.021125
      vertex -0.06 -0.00134164 0.00067082
    endloop
  endfacet
  facet normal -0.0104205 0.439057 -0.898399
    outer loop
      vertex -0.05 0.00118017 -0.000925844
      vertex -0.04 0.000968913 -0.00114508
      vertex -0.03795 -0.0200166 -0.0114247
    endloop
  endfacet
  facet normal 0.79175 0.565044 -0.232074
    outer loop
      vertex -0.05 0.00118017 -0.000925844
      vertex -0.03795 -0.0200166 -0.0114247
      vertex -0.0429811 -0.0149103 -0.0161566
    endloop
  endfacet
  facet normal 0.000235477 -0.725425 0.688301
    outer loop
      vertex -0.04 -0.000968913 0.00114508
      vertex -0.05 -0.00118017 0.000925844
      vertex -0.0450189 -0.0170897 -0.0158434
    endloop
  endfacet
  facet normal -0.814648 -0.281012 0.507328
    outer loop
      vertex -0.04 -0.000968913 0.00114508
      vertex -0.0450189 -0.0170897 -0.0158434
      vertex -0.04005 -0.0219834 -0.0105753
    endloop
  endfacet
  facet normal 0.995933 0.068781 0.0581993
    outer loop
      vertex -0.03795 -0.0200166 -0.0114247
      vertex -0.04 0.000968913 -0.00114508
      vertex -0.04 -0.000968913 0.00114508
    endloop
  endfacet
  facet normal 0.629652 -0.379553 0.677848
    outer loop
      vertex -0.03795 -0.0200166 -0.0114247
      vertex -0.04 -0.000968913 0.00114508
      vertex -0.04005 -0.0219834 -0.0105753
    endloop
  endfacet
  facet normal 0.85558 0.424379 0.296454
    outer loop
      vertex -0.03795 -0.0200166 -0.0114247
      vertex -0.0319638 -0.0320545 -0.0114686
      vertex -0.028134 -0.028134 -0.028134
    endloop
  endfacet
  facet normal 0.687084 0.724747 0.0515508
    outer loop
      vertex -0.03795 -0.0200166 -0.0114247
      vertex -0.028134 -0.028134 -0.028134
      vertex -0.0429811 -0.0149103 -0.0161566
    endloop
  endfacet
  facet normal -0.81754 -0.466274 0.337959
    outer loop
      vertex -0.0340362 -0.0339455 -0.0125314
      vertex -0.04005 -0.0219834 -0.0105753
      vertex -0.0450189 -0.0170897 -0.0158434
    endloop
  endfacet
  facet normal -0.76529 -0.560743 -0.316068
    outer loop
      vertex -0.0340362 -0.0339455 -0.0125314
      vertex -0.0450189 -0.0170897 -0.0158434
      vertex -0.029866 -0.029866 -0.029866
    endloop
  endfacet
  facet normal 0.265865 0.128723 0.955377
    outer loop
      vertex -0.0319638 -0.0320545 -0.0114686
      vertex -0.03795 -0.0200166 -0.0114247
      vertex -0.04005 -0.0219834 -0.0105753
    endloop
  endfacet
  facet normal -0.232894 -0.269867 0.934308
    outer loop
      vertex -0.0319638 -0.0320545 -0.0114686
      vertex -0.04005 -0.0219834 -0.0105753
      vertex -0.0340362 -0.0339455 -0.0125314
    endloop
  endfacet
  facet normal 0.445376 0.390537 0.805681
    outer loop
      vertex -0.0319638 -0.0320545 -0.0114686
      vertex -0.020875 -0.0480528 -0.00984363
      vertex -0.0161566 -0.0429811 -0.0149103
    endloop
  endfacet
  facet normal 0.585323 0.74891 0.310694
    outer loop
      vertex -0.0319638 -0.0320545 -0.0114686
      vertex -0.0161566 -0.0429811 -0.0149103
      vertex -0.028134 -0.028134 -0.028134
    endloop
  endfacet
  facet normal -0.734253 -0.599889 -0.317813
    outer loop
      vertex -0.021125 -0.0499472 -0.0121564
      vertex -0.0340362 -0.0339455 -0.0125314
      vertex -0.029866 -0.029866 -0.029866
    endloop
  endfacet
  facet normal -0.0581752 -0.674437 -0.736037
    outer loop
      vertex -0.021125 -0.0499472 -0.0121564
      vertex -0.029866 -0.029866 -0.029866
      vertex -0.0158434 -0.0450189 -0.0170897
    endloop
  endfacet
  facet normal -0.344124 -0.144285 0.927772
    outer loop
      vertex -0.020875 -0.0480528 -0.00984363
      vertex -0.0319638 -0.0320545 -0.0114686
      vertex -0.0340362 -0.0339455 -0.0125314
    endloop
  endfacet
  facet normal -0.675406 -0.533015 0.509629
    outer loop
      vertex -0.020875 -0.0480528 -0.00984363
      vertex -0.0340362 -0.0339455 -0.0125314
      vertex -0.021125 -0.0499472 -0.0121564
    endloop
  endfacet
  facet normal -0.727853 -0.00749037 0.685692
    outer loop
      vertex -0.00067082 -0.06 0.00134164
      vertex -0.000925844 -0.05 0.00118017
      vertex -0.0161566 -0.0429811 -0.0149103
    endloop
  endfacet
  facet normal 0.0171329 0.698633 0.715275
    outer loop
      vertex -0.00067082 -0.06 0.00134164
      vertex -0.0161566 -0.0429811 -0.0149103
      vertex -0.020875 -0.0480528 -0.00984363
    endloop
  endfacet
  facet normal 0.445617 0.00309043 -0.895218
    outer loop
      vertex 0.000925844 -0.05 -0.00118017
      vertex 0.00067082 -0.06 -0.00134164
      vertex -0.021125 -0.0499472 -0.0121564
    endloop
  endfacet
  facet normal 0.260898 -0.808159 -0.528025
    outer loop
      vertex 0.000925844 -0.05 -0.00118017
      vertex -0.021125 -0.0499472 -0.0121564
      vertex -0.0158434 -0.0450189 -0.0170897
    endloop
  endfacet
  facet normal -0.629436 -0.566386 0.531994
    outer loop
      vertex -0.00067082 -0.06 0.00134164
      vertex -0.020875 -0.0480528 -0.00984363
      vertex -0.021125 -0.0499472 -0.0121564
    endloop
  endfacet
  facet normal -0.341541 -0.924222 -0.170771
    outer loop
      vertex -0.00067082 -0.06 0.00134164
      vertex -0.021125 -0.0499472 -0.0121564
      vertex 0.00067082 -0.06 -0.00134164
    endloop
  endfacet
  facet normal -0.898399 -0.0104205 0.439057
    outer loop
      vertex -0.000925844 -0.05 0.00118017
      vertex -0.00114508 -0.04 0.000968913
      vertex -0.0114247 -0.03795 -0.0200166
    endloop
  endfacet
  facet normal -0.232074 0.79175 0.565044
    outer loop
      vertex -0.000925844 -0.05 0.00118017
      vertex -0.0114247 -0.03795 -0.0200166
      vertex -0.0161566 -0.0429811 -0.0149103
    endloop
  endfacet
  facet normal 0.688301 0.000235477 -0.725425
    outer loop
      vertex 0.00114508 -0.04 -0.000968913
      vertex 0.000925844 -0.05 -0.00118017
      vertex -0.0158434 -0.0450189 -0.0170897
    endloop
  endfacet
  facet normal 0.507328 -0.814648 -0.281012
    outer loop
      vertex 0.00114508 -0.04 -0.000968913
      vertex -0.0158434 -0.0450189 -0.0170897
      vertex -0.0105753 -0.04005 -0.0219834
    endloop
  endfacet
  facet normal 0.0581993 0.995933 0.068781
    outer loop
      vertex -0.0114247 -0.03795 -0.0200166
      vertex -0.00114508 -0.04 0.000968913
      vertex 0.00114508 -0.04 -0.000968913
    endloop
  endfacet
  facet normal 0.677848 0.629652 -0.379553
    outer loop
      vertex -0.0114247 -0.03795 -0.0200166
      vertex 0.00114508 -0.04 -0.000968913
      vertex -0.0105753 -0.04005 -0.0219834
    endloop
  endfacet
  facet normal 0.296454 0.85558 0.424379
    outer loop
      vertex -0.0114247 -0.03795 -0.0200166
      vertex -0.0114686 -0.0319638 -0.0320545
      vertex -0.028134 -0.028134 -0.028134
    endloop
  endfacet
  facet normal 0.0515508 0.687084 0.724747
    outer loop
      vertex -0.0114247 -0.03795 -0.0200166
      vertex -0.028134 -0.028134 -0.028134
      vertex -0.0161566 -0.0429811 -0.0149103
    endloop
  endfacet
  facet normal 0.337959 -0.81754 -0.466274
    outer loop
      vertex -0.0125314 -0.0340362 -0.0339455
      vertex -0.0105753 -0.04005 -0.0219834
      vertex -0.0158434 -0.0450189 -0.0170897
    endloop
  endfacet
  facet normal -0.316068 -0.76529 -0.560743
    outer loop
      vertex -0.0125314 -0.0340362 -0.0339455
      vertex -0.0158434 -0.0450189 -0.0170897
      vertex -0.029866 -0.029866 -0.029866
    endloop
  endfacet
  facet normal 0.955377 0.265865 0.128723
    outer loop
      vertex -0.0114686 -0.0319638 -0.0320545
      vertex -0.0114247 -0.03795 -0.0200166
      vertex -0.0105753 -0.04005 -0.0219834
    endloop
  endfacet
  facet normal 0.934308 -0.232894 -0.269867
    outer loop
      vertex -0.0114686 -0.0319638 -0.0320545
      vertex -0.0105753 -0.04005 -0.0219834
      vertex -0.0125314 -0.0340362 -0.0339455
    endloop
  endfacet
  facet normal 0.805681 0.445376 0.390537
    outer loop
      vertex -0.0114686 -0.0319638 -0.0320545
      vertex -0.00984363 -0.020875 -0.0480528
      vertex -0.0149103 -0.0161566 -0.0429811
    endloop
  endfacet
  facet normal 0.310694 0.585323 0.74891
    outer loop
      vertex -0.0114686 -0.0319638 -0.0320545
      vertex -0.0149103 -0.0161566 -0.0429811
      vertex -0.028134 -0.028134 -0.028134
    endloop
  endfacet
  facet normal -0.317813 -0.734253 -0.599889
    outer loop
      vertex -0.0121564 -0.021125 -0.0499472
      vertex -0.0125314 -0.0340362 -0.0339455
      vertex -0.029866 -0.029866 -0.029866
    endloop
  endfacet
  facet normal -0.736037 -0.0581752 -0.674437
    outer loop
      vertex -0.0121564 -0.021125 -0.0499472
      vertex -0.029866 -0.029866 -0.029866
      vertex -0.0170897 -0.0158434 -0.0450189
    endloop
  endfacet
  facet normal 0.927772 -0.344124 -0.144285
    outer loop
      vertex -0.00984363 -0.020875 -0.0480528
      vertex -0.0114686 -0.0319638 -0.0320545
      vertex -0.0125314 -0.0340362 -0.0339455
    endloop
  endfacet
  facet normal 0.509629 -0.675406 -0.533015
    outer loop
      vertex -0.00984363 -0.020875 -0.0480528
      vertex -0.0125314 -0.0340362 -0.0339455
      vertex -0.0121564 -0.021125 -0.0499472
    endloop
  endfacet
  facet normal 0.568122 -0.23702 0.788073
    outer loop
      vertex 0.00118017 -0.000925844 -0.05
      vertex -0.0149103 -0.0161566 -0.0429811
      vertex -0.00984363 -0.020875 -0.0480528
    endloop
  endfacet
  facet normal 0.875328 -0.483527 0.0018025
    outer loop
      vertex 0.00118017 -0.000925844 -0.05
      vertex -0.00984363 -0.020875 -0.0480528
      vertex 0.00134164 -0.00067082 -0.06
    endloop
  endfacet
  facet normal -0.726308 0.687345 -0.00580154
    outer loop
      vertex -0.0170897 -0.0158434 -0.0450189
      vertex -0.00118017 0.000925844 -0.05
      vertex -0.00134164 0.00067082 -0.06
    endloop
  endfacet
  facet normal -0.697972 0.0161103 -0.715944
    outer loop
      vertex -0.0170897 -0.0158434 -0.0450189
      vertex -0.00134164 0.00067082 -0.06
      vertex -0.0121564 -0.021125 -0.0499472
    endloop
  endfacet
  facet normal 0.531994 -0.629436 -0.566386
    outer loop
      vertex 0.00134164 -0.00067082 -0.06
      vertex -0.00984363 -0.020875 -0.0480528
      vertex -0.0121564 -0.021125 -0.0499472
    endloop
  endfacet
  facet normal -0.170771 -0.341541 -0.924222
    outer loop
      vertex 0.00134164 -0.00067082 -0.06
      vertex -0.0121564 -0.021125 -0.0499472
      vertex -0.00134164 0.00067082 -0.06
    endloop
  endfacet
  facet normal 0.715944 0.697972 0.0161103
    outer loop
      vertex 0.06 0.00134164 0.00067082
      vertex 0.0499472 0.0121564 -0.021125
      vertex 0.0450189 0.0170897 -0.0158434
    endloop
  endfacet
  facet normal 0.00580154 0.726308 0.687345
    outer loop
      vertex 0.06 0.00134164 0.00067082
      vertex 0.0450189 0.0170897 -0.0158434
      vertex 0.05 0.00118017 0.000925844
    endloop
  endfacet
  facet normal -0.0018025 -0.875328 -0.483527
    outer loop
      vertex 0.0480528 0.00984363 -0.020875
      vertex 0.06 -0.00134164 -0.00067082
      vertex 0.05 -0.00118017 -0.000925844
    endloop
  endfacet
  facet normal -0.788073 -0.568122 -0.23702
    outer loop
      vertex 0.0480528 0.00984363 -0.020875
      vertex 0.05 -0.00118017 -0.000925844
      vertex 0.0429811 0.0149103 -0.0161566
    endloop
  endfacet
  facet normal 0.924222 0.170771 -0.341541
    outer loop
      vertex 0.0499472 0.0121564 -0.021125
      vertex 0.06 0.00134164 0.00067082
      vertex 0.06 -0.00134164 -0.00067082
    endloop
  endfacet
  facet normal 0.566386 -0.531994 -0.629436
    outer loop
      vertex 0.0499472 0.0121564 -0.021125
      vertex 0.06 -0.00134164 -0.00067082
      vertex 0.0480528 0.00984363 -0.020875
    endloop
  endfacet
  facet normal 0.804536 0.531411 0.265187
    outer loop
      vertex 0.05 0.00118017 0.000925844
      vertex 0.0450189 0.0170897 -0.0158434
      vertex 0.04005 0.0219834 -0.0105753
    endloop
  endfacet
  facet normal 0.00885674 0.487057 0.873325
    outer loop
      vertex 0.05 0.00118017 0.000925844
      vertex 0.04005 0.0219834 -0.0105753
      vertex 0.04 0.000968913 0.00114508
    endloop
  endfacet
  facet normal 0.00141252 -0.687111 -0.726551
    outer loop
      vertex 0.0429811 0.0149103 -0.0161566
      vertex 0.05 -0.00118017 -0.000925844
      vertex 0.04 -0.000968913 -0.00114508
    endloop
  endfacet
  facet normal -0.801577 -0.324339 -0.502273
    outer loop
      vertex 0.0429811 0.0149103 -0.0161566
      vertex 0.04 -0.000968913 -0.00114508
      vertex 0.03795 0.0200166 -0.0114247
    endloop
  endfacet
  facet normal -0.629652 0.379553 0.677848
    outer loop
      vertex 0.04 0.000968913 0.00114508
      vertex 0.04005 0.0219834 -0.0105753
      vertex 0.03795 0.0200166 -0.0114247
    endloop
  endfacet
  facet normal -0.995933 -0.068781 0.0581993
    outer loop
      vertex 0.04 0.000968913 0.00114508
      vertex 0.03795 0.0200166 -0.0114247
      vertex 0.04 -0.000968913 -0.00114508
    endloop
  endfacet
  facet normal 0.00141252 0.687111 0.726551
    outer loop
      vertex 0.0429811 -0.0149103 0.0161566
      vertex 0.05 0.00118017 0.000925844
      vertex 0.04 0.000968913 0.00114508
    endloop
  endfacet
  facet normal -0.801577 0.324339 0.502273
    outer loop
      vertex 0.0429811 -0.0149103 0.0161566
      vertex 0.04 0.000968913 0.00114508
      vertex 0.03795 -0.0200166 0.0114247
    endloop
  endfacet
  facet normal 0.804536 -0.531411 -0.265187
    outer loop
      vertex 0.05 -0.00118017 -0.000925844
      vertex 0.0450189 -0.0170897 0.0158434
      vertex 0.04005 -0.0219834 0.0105753
    endloop
  endfacet
  facet normal 0.00885674 -0.487057 -0.873325
    outer loop
      vertex 0.05 -0.00118017 -0.000925844
      vertex 0.04005 -0.0219834 0.0105753
      vertex 0.04 -0.000968913 -0.00114508
    endloop
  endfacet
  facet normal -0.995933 0.068781 -0.0581993
    outer loop
      vertex 0.03795 -0.0200166 0.0114247
      vertex 0.04 0.000968913 0.00114508
      vertex 0.04 -0.000968913 -0.00114508
    endloop
  endfacet
  facet normal -0.629652 -0.379553 -0.677848
    outer loop
      vertex 0.03795 -0.0200166 0.0114247
      vertex 0.04 -0.000968913 -0.00114508
      vertex 0.04005 -0.0219834 0.0105753
    endloop
  endfacet
  facet normal -0.0018025 0.875328 0.483527
    outer loop
      vertex 0.0480528 -0.00984363 0.020875
      vertex 0.06 0.00134164 0.00067082
      vertex 0.05 0.00118017 0.000925844
    endloop
  endfacet
  facet normal -0.788073 0.568122 0.23702
    outer loop
      vertex 0.0480528 -0.00984363 0.020875
      vertex 0.05 0.00118017 0.000925844
      vertex 0.0429811 -0.0149103 0.0161566
    endloop
  endfacet
  facet normal 0.715944 -0.697972 -0.0161103
    outer loop
      vertex 0.06 -0.00134164 -0.00067082
      vertex 0.0499472 -0.0121564 0.021125
      vertex 0.0450189 -0.0170897 0.0158434
    endloop
  endfacet
  facet normal 0.00580154 -0.726308 -0.687345
    outer loop
      vertex 0.06 -0.00134164 -0.00067082
      vertex 0.0450189 -0.0170897 0.0158434
      vertex 0.05 -0.00118017 -0.000925844
    endloop
  endfacet
  facet normal 0.566386 0.531994 0.629436
    outer loop
      vertex 0.06 0.00134164 0.00067082
      vertex 0.0480528 -0.00984363 0.020875
      vertex 0.0499472 -0.0121564 0.021125
    endloop
  endfacet
  facet normal 0.924222 -0.170771 0.341541
    outer loop
      vertex 0.06 0.00134164 0.00067082
      vertex 0.0499472 -0.0121564 0.021125
      vertex 0.06 -0.00134164 -0.00067082
    endloop
  endfacet
  facet normal -0.390537 0.805681 -0.445376
    outer loop
      vertex 0.0320545 -0.0114686 0.0319638
      vertex 0.0480528 -0.00984363 0.020875
      vertex 0.0429811 -0.0149103 0.0161566
    endloop
  endfacet
  facet normal -0.74891 0.310694 -0.585323
    outer loop
      vertex 0.0320545 -0.0114686 0.0319638
      vertex 0.0429811 -0.0149103 0.0161566
      vertex 0.028134 -0.028134 0.028134
    endloop
  endfacet
  facet normal 0.599889 -0.317813 0.734253
    outer loop
      vertex 0.0499472 -0.0121564 0.021125
      vertex 0.0339455 -0.0125314 0.0340362
      vertex 0.029866 -0.029866 0.029866
    endloop
  endfacet
  facet normal 0.674437 -0.736037 0.0581752
    outer loop
      vertex 0.0499472 -0.0121564 0.021125
      vertex 0.029866 -0.029866 0.029866
      vertex 0.0450189 -0.0170897 0.0158434
    endloop
  endfacet
  facet normal 0.144285 0.927772 0.344124
    outer loop
      vertex 0.0480528 -0.00984363 0.020875
      vertex 0.0320545 -0.0114686 0.0319638
      vertex 0.0339455 -0.0125314 0.0340362
    endloop
  endfacet
  facet normal 0.533015 0.509629 0.675406
    outer loop
      vertex 0.0480528 -0.00984363 0.020875
      vertex 0.0339455 -0.0125314 0.0340362
      vertex 0.0499472 -0.0121564 0.021125
    endloop
  endfacet
  facet normal -0.85558 0.424379 -0.296454
    outer loop
      vertex 0.03795 -0.0200166 0.0114247
      vertex 0.0319638 -0.0320545 0.0114686
      vertex 0.028134 -0.028134 0.028134
    endloop
  endfacet
  facet normal -0.687084 0.724747 -0.0515508
    outer loop
      vertex 0.03795 -0.0200166 0.0114247
      vertex 0.028134 -0.028134 0.028134
      vertex 0.0429811 -0.0149103 0.0161566
    endloop
  endfacet
  facet normal 0.81754 -0.466274 -0.337959
    outer loop
      vertex 0.0340362 -0.0339455 0.0125314
      vertex 0.04005 -0.0219834 0.0105753
      vertex 0.0450189 -0.0170897 0.0158434
    endloop
  endfacet
  facet normal 0.76529 -0.560743 0.316068
    outer loop
      vertex 0.0340362 -0.0339455 0.0125314
      vertex 0.0450189 -0.0170897 0.0158434
      vertex 0.029866 -0.029866 0.029866
    endloop
  endfacet
  facet normal -0.265865 0.128723 -0.955377
    outer loop
      vertex 0.0319638 -0.0320545 0.0114686
      vertex 0.03795 -0.0200166 0.0114247
      vertex 0.04005 -0.0219834 0.0105753
    endloop
  endfacet
  facet normal 0.232894 -0.269867 -0.934308
    outer loop
      vertex 0.0319638 -0.0320545 0.0114686
      vertex 0.04005 -0.0219834 0.0105753
      vertex 0.0340362 -0.0339455 0.0125314
    endloop
  endfacet
  facet normal -0.445376 0.390537 -0.805681
    outer loop
      vertex 0.0319638 -0.0320545 0.0114686
      vertex 0.020875 -0.0480528 0.00984363
      vertex 0.0161566 -0.0429811 0.0149103
    endloop
  endfacet
  facet normal -0.585323 0.74891 -0.310694
    outer loop
      vertex 0.0319638 -0.0320545 0.0114686
      vertex 0.0161566 -0.0429811 0.0149103
      vertex 0.028134 -0.028134 0.028134
    endloop
  endfacet
  facet normal 0.734253 -0.599889 0.317813
    outer loop
      vertex 0.021125 -0.0499472 0.0121564
      vertex 0.0340362 -0.0339455 0.0125314
      vertex 0.029866 -0.029866 0.029866
    endloop
  endfacet
  facet normal 0.0581752 -0.674437 0.736037
    outer loop
      vertex 0.021125 -0.0499472 0.0121564
      vertex 0.029866 -0.029866 0.029866
      vertex 0.0158434 -0.0450189 0.0170897
    endloop
  endfacet
  facet normal 0.344124 -0.144285 -0.927772
    outer loop
      vertex 0.020875 -0.0480528 0.00984363
      vertex 0.0319638 -0.0320545 0.0114686
      vertex 0.0340362 -0.0339455 0.0125314
    endloop
  endfacet
  facet normal 0.675406 -0.533015 -0.509629
    outer loop
      vertex 0.020875 -0.0480528 0.00984363
      vertex 0.0340362 -0.0339455 0.0125314
      vertex 0.021125 -0.0499472 0.0121564
    endloop
  endfacet
  facet normal 0.727853 -0.00749037 -0.685692
    outer loop
      vertex 0.00067082 -0.06 -0.00134164
      vertex 0.000925844 -0.05 -0.00118017
      vertex 0.0161566 -0.0429811 0.0149103
    endloop
  endfacet
  facet normal -0.0171329 0.698633 -0.715275
    outer loop
      vertex 0.00067082 -0.06 -0.00134164
      vertex 0.0161566 -0.0429811 0.0149103
      vertex 0.020875 -0.0480528 0.00984363
    endloop
  endfacet
  facet normal -0.445617 0.00309043 0.895218
    outer loop
      vertex -0.000925844 -0.05 0.00118017
      vertex -0.00067082 -0.06 0.00134164
      vertex 0.021125 -0.0499472 0.0121564
    endloop
  endfacet
  facet normal -0.260898 -0.808159 0.528025
    outer loop
      vertex -0.000925844 -0.05 0.00118017
      vertex 0.021125 -0.0499472 0.0121564
      vertex 0.0158434 -0.0450189 0.0170897
    endloop
  endfacet
  facet normal 0.629436 -0.566386 -0.531994
    outer loop
      vertex 0.00067082 -0.06 -0.00134164
      vertex 0.020875 -0.0480528 0.00984363
      vertex 0.021125 -0.0499472 0.0121564
    endloop
  endfacet
  facet normal 0.341541 -0.924222 0.170771
    outer loop
      vertex 0.00067082 -0.06 -0.00134164
      vertex 0.021125 -0.0499472 0.0121564
      vertex -0.00067082 -0.06 0.00134164
    endloop
  endfacet
  facet normal 0.898399 -0.0104205 -0.439057
    outer loop
      vertex 0.000925844 -0.05 -0.00118017
      vertex 0.00114508 -0.04 -0.000968913
      vertex 0.0114247 -0.03795 0.0200166
    endloop
  endfacet
  facet normal 0.232074 0.79175 -0.565044
    outer loop
      vertex 0.000925844 -0.05 -0.00118017
      vertex 0.0114247 -0.03795 0.0200166
      vertex 0.0161566 -0.0429811 0.0149103
    endloop
  endfacet
  facet normal -0.688301 0.000235477 0.725425
    outer loop
      vertex -0.00114508 -0.04 0.000968913
      vertex -0.000925844 -0.05 0.00118017
      vertex 0.0158434 -0.0450189 0.0170897
    endloop
  endfacet
  facet normal -0.507328 -0.814648 0.281012
    outer loop
      vertex -0.00114508 -0.04 0.000968913
      vertex 0.0158434 -0.0450189 0.0170897
      vertex 0.0105753 -0.04005 0.0219834
    endloop
  endfacet
  facet normal -0.0581993 0.995933 -0.068781
    outer loop
      vertex 0.0114247 -0.03795 0.0200166
      vertex 0.00114508 -0.04 -0.000968913
      vertex -0.00114508 -0.04 0.000968913
    endloop
  endfacet
  facet normal -0.677848 0.629652 0.379553
    outer loop
      vertex 0.0114247 -0.03795 0.0200166
      vertex -0.00114508 -0.04 0.000968913
      vertex 0.0105753 -0.04005 0.0219834
    endloop
  endfacet
  facet normal -0.296454 0.85558 -0.424379
    outer loop
      vertex 0.0114247 -0.03795 0.0200166
      vertex 0.0114686 -0.0319638 0.0320545
      vertex 0.028134 -0.028134 0.028134
    endloop
  endfacet
  facet normal -0.0515508 0.687084 -0.724747
    outer loop
      vertex 0.0114247 -0.03795 0.0200166
      vertex 0.028134 -0.028134 0.028134
      vertex 0.0161566 -0.0429811 0.0149103
    endloop
  endfacet
  facet normal -0.337959 -0.81754 0.466274
    outer loop
      vertex 0.0125314 -0.0340362 0.0339455
      vertex 0.0105753 -0.04005 0.0219834
      vertex 0.0158434 -0.0450189 0.0170897
    endloop
  endfacet
  facet normal 0.316068 -0.76529 0.560743
    outer loop
      vertex 0.0125314 -0.0340362 0.0339455
      vertex 0.0158434 -0.0450189 0.0170897
      vertex 0.029866 -0.029866 0.029866
    endloop
  endfacet
  facet normal -0.955377 0.265865 -0.128723
    outer loop
      vertex 0.0114686 -0.0319638 0.0320545
      vertex 0.0114247 -0.03795 0.0200166
      vertex 0.0105753 -0.04005 0.0219834
    endloop
  endfacet
  facet normal -0.934308 -0.232894 0.269867
    outer loop
      vertex 0.0114686 -0.0319638 0.0320545
      vertex 0.0105753 -0.04005 0.0219834
      vertex 0.0125314 -0.0340362 0.0339455
    endloop
  endfacet
  facet normal -0.805681 0.445376 -0.390537
    outer loop
      vertex 0.0114686 -0.0319638 0.0320545
      vertex 0.00984363 -0.020875 0.0480528
      vertex 0.0149103 -0.0161566 0.0429811
    endloop
  endfacet
  facet normal -0.310694 0.585323 -0.74891
    outer loop
      vertex 0.0114686 -0.0319638 0.0320545
      vertex 0.0149103 -0.0161566 0.0429811
      vertex 0.028134 -0.028134 0.028134
    endloop
  endfacet
  facet normal 0.317813 -0.734253 0.599889
    outer loop
      vertex 0.0121564 -0.021125 0.0499472
      vertex 0.0125314 -0.0340362 0.0339455
      vertex 0.029866 -0.029866 0.029866
    endloop
  endfacet
  facet normal 0.736037 -0.0581752 0.674437
    outer loop
      vertex 0.0121564 -0.021125 0.0499472
      vertex 0.029866 -0.029866 0.029866
      vertex 0.0170897 -0.0158434 0.0450189
    endloop
  endfacet
  facet normal -0.927772 -0.344124 0.144285
    outer loop
      vertex 0.00984363 -0.020875 0.0480528
      vertex 0.0114686 -0.0319638 0.0320545
      vertex 0.0125314 -0.0340362 0.0339455
    endloop
  endfacet
  facet normal -0.509629 -0.675406 0.533015
    outer loop
      vertex 0.00984363 -0.020875 0.0480528
      vertex 0.0125314 -0.0340362 0.0339455
      vertex 0.0121564 -0.021125 0.0499472
    endloop
  endfacet
  facet normal -0.568122 -0.23702 -0.788073
    outer loop
      vertex -0.00118017 -0.000925844 0.05
      vertex 0.0149103 -0.0161566 0.0429811
      vertex 0.00984363 -0.020875 0.0480528
    endloop
  endfacet
  facet normal -0.875328 -0.483527 -0.0018025
    outer loop
      vertex -0.00118017 -0.000925844 0.05
      vertex 0.00984363 -0.020875 0.0480528
      vertex -0.00134164 -0.00067082 0.06
    endloop
  endfacet
  facet normal 0.726308 0.687345 0.00580154
    outer loop
      vertex 0.0170897 -0.0158434 0.0450189
      vertex 0.00118017 0.000925844 0.05
      vertex 0.00134164 0.00067082 0.06
    endloop
  endfacet
  facet normal 0.697972 0.0161103 0.715944
    outer loop
      vertex 0.0170897 -0.0158434 0.0450189
      vertex 0.00134164 0.00067082 0.06
      vertex 0.0121564 -0.021125 0.0499472
    endloop
  endfacet
  facet normal -0.531994 -0.629436 0.566386
    outer loop
      vertex -0.00134164 -0.00067082 0.06
      vertex 0.00984363 -0.020875 0.0480528
      vertex 0.0121564 -0.021125 0.0499472
    endloop
  endfacet
  facet normal 0.170771 -0.341541 0.924222
    outer loop
      vertex -0.00134164 -0.00067082 0.06
      vertex 0.0121564 -0.021125 0.0499472
      vertex 0.00134164 0.00067082 0.06
    endloop
  endfacet
  facet normal -0.439057 -0.898399 0.0104205
    outer loop
      vertex -0.00118017 -0.000925844 0.05
      vertex -0.000968913 -0.00114508 0.04
      vertex 0.0200166 -0.0114247 0.03795
    endloop
  endfacet
  facet normal -0.565044 -0.232074 -0.79175
    outer loop
      vertex -0.00118017 -0.000925844 0.05
      vertex 0.0200166 -0.0114247 0.03795
      vertex 0.0149103 -0.0161566 0.0429811
    endloop
  endfacet
  facet normal 0.725425 0.688301 -0.000235477
    outer loop
      vertex 0.000968913 0.00114508 0.04
      vertex 0.00118017 0.000925844 0.05
      vertex 0.0170897 -0.0158434 0.0450189
    endloop
  endfacet
  facet normal 0.281012 0.507328 0.814648
    outer loop
      vertex 0.000968913 0.00114508 0.04
      vertex 0.0170897 -0.0158434 0.0450189
      vertex 0.0219834 -0.0105753 0.04005
    endloop
  endfacet
  facet normal -0.068781 0.0581993 -0.995933
    outer loop
      vertex 0.0200166 -0.0114247 0.03795
      vertex -0.000968913 -0.00114508 0.04
      vertex 0.000968913 0.00114508 0.04
    endloop
  endfacet
  facet normal 0.379553 0.677848 -0.629652
    outer loop
      vertex 0.0200166 -0.0114247 0.03795
      vertex 0.000968913 0.00114508 0.04
      vertex 0.0219834 -0.0105753 0.04005
    endloop
  endfacet
  facet normal -0.424379 0.296454 -0.85558
    outer loop
      vertex 0.0200166 -0.0114247 0.03795
      vertex 0.0320545 -0.0114686 0.0319638
      vertex 0.028134 -0.028134 0.028134
    endloop
  endfacet
  facet normal -0.724747 0.0515508 -0.687084
    outer loop
      vertex 0.0200166 -0.0114247 0.03795
      vertex 0.028134 -0.028134 0.028134
      vertex 0.0149103 -0.0161566 0.0429811
    endloop
  endfacet
  facet normal 0.466274 0.337959 0.81754
    outer loop
      vertex 0.0339455 -0.0125314 0.0340362
      vertex 0.0219834 -0.0105753 0.04005
      vertex 0.0170897 -0.0158434 0.0450189
    endloop
  endfacet
  facet normal 0.560743 -0.316068 0.76529
    outer loop
      vertex 0.0339455 -0.0125314 0.0340362
      vertex 0.0170897 -0.0158434 0.0450189
      vertex 0.029866 -0.029866 0.029866
    endloop
  endfacet
  facet normal -0.128723 0.955377 -0.265865
    outer loop
      vertex 0.0320545 -0.0114686 0.0319638
      vertex 0.0200166 -0.0114247 0.03795
      vertex 0.0219834 -0.0105753 0.04005
    endloop
  endfacet
  facet normal 0.269867 0.934308 0.232894
    outer loop
      vertex 0.0320545 -0.0114686 0.0319638
      vertex 0.0219834 -0.0105753 0.04005
      vertex 0.0339455 -0.0125314 0.0340362
    endloop
  endfacet
  facet normal -0.0161103 0.715944 -0.697972
    outer loop
      vertex -0.00067082 0.06 -0.00134164
      vertex 0.021125 0.0499472 -0.0121564
      vertex 0.0158434 0.0450189 -0.0170897
    endloop
  endfacet
  facet normal -0.687345 0.00580154 -0.726308
    outer loop
      vertex -0.00067082 0.06 -0.00134164
      vertex 0.0158434 0.0450189 -0.0170897
      vertex -0.000925844 0.05 -0.00118017
    endloop
  endfacet
  facet normal 0.483527 -0.0018025 0.875328
    outer loop
      vertex 0.020875 0.0480528 -0.00984363
      vertex 0.00067082 0.06 0.00134164
      vertex 0.000925844 0.05 0.00118017
    endloop
  endfacet
  facet normal 0.23702 -0.788073 0.568122
    outer loop
      vertex 0.020875 0.0480528 -0.00984363
      vertex 0.000925844 0.05 0.00118017
      vertex 0.0161566 0.0429811 -0.0149103
    endloop
  endfacet
  facet normal 0.341541 0.924222 -0.170771
    outer loop
      vertex 0.021125 0.0499472 -0.0121564
      vertex -0.00067082 0.06 -0.00134164
      vertex 0.00067082 0.06 0.00134164
    endloop
  endfacet
  facet normal 0.629436 0.566386 0.531994
    outer loop
      vertex 0.021125 0.0499472 -0.0121564
      vertex 0.00067082 0.06 0.00134164
      vertex 0.020875 0.0480528 -0.00984363
    endloop
  endfacet
  facet normal -0.265187 0.804536 -0.531411
    outer loop
      vertex -0.000925844 0.05 -0.00118017
      vertex 0.0158434 0.0450189 -0.0170897
      vertex 0.0105753 0.04005 -0.0219834
    endloop
  endfacet
  facet normal -0.873325 0.00885674 -0.487057
    outer loop
      vertex -0.000925844 0.05 -0.00118017
      vertex 0.0105753 0.04005 -0.0219834
      vertex -0.00114508 0.04 -0.000968913
    endloop
  endfacet
  facet normal 0.726551 0.00141252 0.687111
    outer loop
      vertex 0.0161566 0.0429811 -0.0149103
      vertex 0.000925844 0.05 0.00118017
      vertex 0.00114508 0.04 0.000968913
    endloop
  endfacet
  facet normal 0.502273 -0.801577 0.324339
    outer loop
      vertex 0.0161566 0.0429811 -0.0149103
      vertex 0.00114508 0.04 0.000968913
      vertex 0.0114247 0.03795 -0.0200166
    endloop
  endfacet
  facet normal -0.677848 -0.629652 -0.379553
    outer loop
      vertex -0.00114508 0.04 -0.000968913
      vertex 0.0105753 0.04005 -0.0219834
      vertex 0.0114247 0.03795 -0.0200166
    endloop
  endfacet
  facet normal -0.0581993 -0.995933 0.068781
    outer loop
      vertex -0.00114508 0.04 -0.000968913
      vertex 0.0114247 0.03795 -0.0200166
      vertex 0.00114508 0.04 0.000968913
    endloop
  endfacet
  facet normal -0.726551 0.00141252 -0.687111
    outer loop
      vertex -0.0161566 0.0429811 0.0149103
      vertex -0.000925844 0.05 -0.00118017
      vertex -0.00114508 0.04 -0.000968913
    endloop
  endfacet
  facet normal -0.502273 -0.801577 -0.324339
    outer loop
      vertex -0.0161566 0.0429811 0.0149103
      vertex -0.00114508 0.04 -0.000968913
      vertex -0.0114247 0.03795 0.0200166
    endloop
  endfacet
  facet normal 0.265187 0.804536 0.531411
    outer loop
      vertex 0.000925844 0.05 0.00118017
      vertex -0.0158434 0.0450189 0.0170897
      vertex -0.0105753 0.04005 0.0219834
    endloop
  endfacet
  facet normal 0.873325 0.00885674 0.487057
    outer loop
      vertex 0.000925844 0.05 0.00118017
      vertex -0.0105753 0.04005 0.0219834
      vertex 0.00114508 0.04 0.000968913
    endloop
  endfacet
  facet normal 0.0581993 -0.995933 -0.068781
    outer loop
      vertex -0.0114247 0.03795 0.0200166
      vertex -0.00114508 0.04 -0.000968913
      vertex 0.00114508 0.04 0.000968913
    endloop
  endfacet
  facet normal 0.677848 -0.629652 0.379553
    outer loop
      vertex -0.0114247 0.03795 0.0200166
      vertex 0.00114508 0.04 0.000968913
      vertex -0.0105753 0.04005 0.0219834
    endloop
  endfacet
  facet normal -0.483527 -0.0018025 -0.875328
    outer loop
      vertex -0.020875 0.0480528 0.00984363
      vertex -0.00067082 0.06 -0.00134164
      vertex -0.000925844 0.05 -0.00118017
    endloop
  endfacet
  facet normal -0.23702 -0.788073 -0.568122
    outer loop
      vertex -0.020875 0.0480528 0.00984363
      vertex -0.000925844 0.05 -0.00118017
      vertex -0.0161566 0.0429811 0.0149103
    endloop
  endfacet
  facet normal 0.0161103 0.715944 0.697972
    outer loop
      vertex 0.00067082 0.06 0.00134164
      vertex -0.021125 0.0499472 0.0121564
      vertex -0.0158434 0.0450189 0.0170897
    endloop
  endfacet
  facet normal 0.687345 0.00580154 0.726308
    outer loop
      vertex 0.00067082 0.06 0.00134164
      vertex -0.0158434 0.0450189 0.0170897
      vertex 0.000925844 0.05 0.00118017
    endloop
  endfacet
  facet normal -0.629436 0.566386 -0.531994
    outer loop
      vertex -0.00067082 0.06 -0.00134164
      vertex -0.020875 0.0480528 0.00984363
      vertex -0.021125 0.0499472 0.0121564
    endloop
  endfacet
  facet normal -0.341541 0.924222 0.170771
    outer loop
      vertex -0.00067082 0.06 -0.00134164
      vertex -0.021125 0.0499472 0.0121564
      vertex 0.00067082 0.06 0.00134164
    endloop
  endfacet
  facet normal 0.445376 -0.390537 -0.805681
    outer loop
      vertex -0.0319638 0.0320545 0.0114686
      vertex -0.020875 0.0480528 0.00984363
      vertex -0.0161566 0.0429811 0.0149103
    endloop
  endfacet
  facet normal 0.585323 -0.74891 -0.310694
    outer loop
      vertex -0.0319638 0.0320545 0.0114686
      vertex -0.0161566 0.0429811 0.0149103
      vertex -0.028134 0.028134 0.028134
    endloop
  endfacet
  facet normal -0.734253 0.599889 0.317813
    outer loop
      vertex -0.021125 0.0499472 0.0121564
      vertex -0.0340362 0.0339455 0.0125314
      vertex -0.029866 0.029866 0.029866
    endloop
  endfacet
  facet normal -0.0581752 0.674437 0.736037
    outer loop
      vertex -0.021125 0.0499472 0.0121564
      vertex -0.029866 0.029866 0.029866
      vertex -0.0158434 0.0450189 0.0170897
    endloop
  endfacet
  facet normal -0.344124 0.144285 -0.927772
    outer loop
      vertex -0.020875 0.0480528 0.00984363
      vertex -0.0319638 0.0320545 0.0114686
      vertex -0.0340362 0.0339455 0.0125314
    endloop
  endfacet
  facet normal -0.675406 0.533015 -0.509629
    outer loop
      vertex -0.020875 0.0480528 0.00984363
      vertex -0.0340362 0.0339455 0.0125314
      vertex -0.021125 0.0499472 0.0121564
    endloop
  endfacet
  facet normal 0.296454 -0.85558 -0.424379
    outer loop
      vertex -0.0114247 0.03795 0.0200166
      vertex -0.0114686 0.0319638 0.0320545
      vertex -0.028134 0.028134 0.028134
    endloop
  endfacet
  facet normal 0.0515508 -0.687084 -0.724747
    outer loop
      vertex -0.0114247 0.03795 0.0200166
      vertex -0.028134 0.028134 0.028134
      vertex -0.0161566 0.0429811 0.0149103
    endloop
  endfacet
  facet normal 0.337959 0.81754 0.466274
    outer loop
      vertex -0.0125314 0.0340362 0.0339455
      vertex -0.0105753 0.04005 0.0219834
      vertex -0.0158434 0.0450189 0.0170897
    endloop
  endfacet
  facet normal -0.316068 0.76529 0.560743
    outer loop
      vertex -0.0125314 0.0340362 0.0339455
      vertex -0.0158434 0.0450189 0.0170897
      vertex -0.029866 0.029866 0.029866
    endloop
  endfacet
  facet normal 0.955377 -0.265865 -0.128723
    outer loop
      vertex -0.0114686 0.0319638 0.0320545
      vertex -0.0114247 0.03795 0.0200166
      vertex -0.0105753 0.04005 0.0219834
    endloop
  endfacet
  facet normal 0.934308 0.232894 0.269867
    outer loop
      vertex -0.0114686 0.0319638 0.0320545
      vertex -0.0105753 0.04005 0.0219834
      vertex -0.0125314 0.0340362 0.0339455
    endloop
  endfacet
  facet normal 0.805681 -0.445376 -0.390537
    outer loop
      vertex -0.0114686 0.0319638 0.0320545
      vertex -0.00984363 0.020875 0.0480528
      vertex -0.0149103 0.0161566 0.0429811
    endloop
  endfacet
  facet normal 0.310694 -0.585323 -0.74891
    outer loop
      vertex -0.0114686 0.0319638 0.0320545
      vertex -0.0149103 0.0161566 0.0429811
      vertex -0.028134 0.028134 0.028134
    endloop
  endfacet
  facet normal -0.317813 0.734253 0.599889
    outer loop
      vertex -0.0121564 0.021125 0.0499472
      vertex -0.0125314 0.0340362 0.0339455
      vertex -0.029866 0.029866 0.029866
    endloop
  endfacet
  facet normal -0.736037 0.0581752 0.674437
    outer loop
      vertex -0.0121564 0.021125 0.0499472
      vertex -0.029866 0.029866 0.029866
      vertex -0.0170897 0.0158434 0.0450189
    endloop
  endfacet
  facet normal 0.927772 0.344124 0.144285
    outer loop
      vertex -0.00984363 0.020875 0.0480528
      vertex -0.0114686 0.0319638 0.0320545
      vertex -0.0125314 0.0340362 0.0339455
    endloop
  endfacet
  facet normal 0.509629 0.675406 0.533015
    outer loop
      vertex -0.00984363 0.020875 0.0480528
      vertex -0.0125314 0.0340362 0.0339455
      vertex -0.0121564 0.021125 0.0499472
    endloop
  endfacet
  facet normal 0.568122 0.23702 -0.788073
    outer loop
      vertex 0.00118017 0.000925844 0.05
      vertex -0.0149103 0.0161566 0.0429811
      vertex -0.00984363 0.020875 0.0480528
    endloop
  endfacet
  facet normal 0.875328 0.483527 -0.0018025
    outer loop
      vertex 0.00118017 0.000925844 0.05
      vertex -0.00984363 0.020875 0.0480528
      vertex 0.00134164 0.00067082 0.06
    endloop
  endfacet
  facet normal -0.726308 -0.687345 0.00580154
    outer loop
      vertex -0.0170897 0.0158434 0.0450189
      vertex -0.00118017 -0.000925844 0.05
      vertex -0.00134164 -0.00067082 0.06
    endloop
  endfacet
  facet normal -0.697972 -0.0161103 0.715944
    outer loop
      vertex -0.0170897 0.0158434 0.0450189
      vertex -0.00134164 -0.00067082 0.06
      vertex -0.0121564 0.021125 0.0499472
    endloop
  endfacet
  facet normal 0.531994 0.629436 0.566386
    outer loop
      vertex 0.00134164 0.00067082 0.06
      vertex -0.00984363 0.020875 0.0480528
      vertex -0.0121564 0.021125 0.0499472
    endloop
  endfacet
  facet normal -0.170771 0.341541 0.924222
    outer loop
      vertex 0.00134164 0.00067082 0.06
      vertex -0.0121564 0.021125 0.0499472
      vertex -0.00134164 -0.00067082 0.06
    endloop
  endfacet
  facet normal 0.439057 0.898399 0.0104205
    outer loop
      vertex 0.00118017 0.000925844 0.05
      vertex 0.000968913 0.00114508 0.04
      vertex -0.0200166 0.0114247 0.03795
    endloop
  endfacet
  facet normal 0.565044 0.232074 -0.79175
    outer loop
      vertex 0.00118017 0.000925844 0.05
      vertex -0.0200166 0.0114247 0.03795
      vertex -0.0149103 0.0161566 0.0429811
    endloop
  endfacet
  facet normal -0.725425 -0.688301 -0.000235477
    outer loop
      vertex -0.000968913 -0.00114508 0.04
      vertex -0.00118017 -0.000925844 0.05
      vertex -0.0170897 0.0158434 0.0450189
    endloop
  endfacet
  facet normal -0.281012 -0.507328 0.814648
    outer loop
      vertex -0.000968913 -0.00114508 0.04
      vertex -0.0170897 0.0158434 0.0450189
      vertex -0.0219834 0.0105753 0.04005
    endloop
  endfacet
  facet normal 0.068781 -0.0581993 -0.995933
    outer loop
      vertex -0.0200166 0.0114247 0.03795
      vertex 0.000968913 0.00114508 0.04
      vertex -0.000968913 -0.00114508 0.04
    endloop
  endfacet
  facet normal -0.379553 -0.677848 -0.629652
    outer loop
      vertex -0.0200166 0.0114247 0.03795
      vertex -0.000968913 -0.00114508 0.04
      vertex -0.0219834 0.0105753 0.04005
    endloop
  endfacet
  facet normal 0.424379 -0.296454 -0.85558
    outer loop
      vertex -0.0200166 0.0114247 0.03795
      vertex -0.0320545 0.0114686 0.0319638
      vertex -0.028134 0.028134 0.028134
    endloop
  endfacet
  facet normal 0.724747 -0.0515508 -0.687084
    outer loop
      vertex -0.0200166 0.0114247 0.03795
      vertex -0.028134 0.028134 0.028134
      vertex -0.0149103 0.0161566 0.0429811
    endloop
  endfacet
  facet normal -0.466274 -0.337959 0.81754
    outer loop
      vertex -0.0339455 0.0125314 0.0340362
      vertex -0.0219834 0.0105753 0.04005
      vertex -0.0170897 0.0158434 0.0450189
    endloop
  endfacet
  facet normal -0.560743 0.316068 0.76529
    outer loop
      vertex -0.0339455 0.0125314 0.0340362
      vertex -0.0170897 0.0158434 0.0450189
      vertex -0.029866 0.029866 0.029866
    endloop
  endfacet
  facet normal 0.128723 -0.955377 -0.265865
    outer loop
      vertex -0.0320545 0.0114686 0.0319638
      vertex -0.0200166 0.0114247 0.03795
      vertex -0.0219834 0.0105753 0.04005
    endloop
  endfacet
  facet normal -0.269867 -0.934308 0.232894
    outer loop
      vertex -0.0320545 0.0114686 0.0319638
      vertex -0.0219834 0.0105753 0.04005
      vertex -0.0339455 0.0125314 0.0340362
    endloop
  endfacet
  facet normal 0.390537 -0.805681 -0.445376
    outer loop
      vertex -0.0320545 0.0114686 0.0319638
      vertex -0.0480528 0.00984363 0.020875
      vertex -0.0429811 0.0149103 0.0161566
    endloop
  endfacet
  facet normal 0.74891 -0.310694 -0.585323
    outer loop
      vertex -0.0320545 0.0114686 0.0319638
      vertex -0.0429811 0.0149103 0.0161566
      vertex -0.028134 0.028134 0.028134
    endloop
  endfacet
  facet normal -0.599889 0.317813 0.734253
    outer loop
      vertex -0.0499472 0.0121564 0.021125
      vertex -0.0339455 0.0125314 0.0340362
      vertex -0.029866 0.029866 0.029866
    endloop
  endfacet
  facet normal -0.674437 0.736037 0.0581752
    outer loop
      vertex -0.0499472 0.0121564 0.021125
      vertex -0.029866 0.029866 0.029866
      vertex -0.0450189 0.0170897 0.0158434
    endloop
  endfacet
  facet normal -0.144285 -0.927772 0.344124
    outer loop
      vertex -0.0480528 0.00984363 0.020875
      vertex -0.0320545 0.0114686 0.0319638
      vertex -0.0339455 0.0125314 0.0340362
    endloop
  endfacet
  facet normal -0.533015 -0.509629 0.675406
    outer loop
      vertex -0.0480528 0.00984363 0.020875
      vertex -0.0339455 0.0125314 0.0340362
      vertex -0.0499472 0.0121564 0.021125
    endloop
  endfacet
  facet normal -0.00749037 -0.685692 0.727853
    outer loop
      vertex -0.06 -0.00134164 0.00067082
      vertex -0.05 -0.00118017 0.000925844
      vertex -0.0429811 0.0149103 0.0161566
    endloop
  endfacet
  facet normal 0.698633 -0.715275 -0.0171329
    outer loop
      vertex -0.06 -0.00134164 0.00067082
      vertex -0.0429811 0.0149103 0.0161566
      vertex -0.0480528 0.00984363 0.020875
    endloop
  endfacet
  facet normal 0.00309043 0.895218 -0.445617
    outer loop
      vertex -0.05 0.00118017 -0.000925844
      vertex -0.06 0.00134164 -0.00067082
      vertex -0.0499472 0.0121564 0.021125
    endloop
  endfacet
  facet normal -0.808159 0.528025 -0.260898
    outer loop
      vertex -0.05 0.00118017 -0.000925844
      vertex -0.0499472 0.0121564 0.021125
      vertex -0.0450189 0.0170897 0.0158434
    endloop
  endfacet
  facet normal -0.566386 -0.531994 0.629436
    outer loop
      vertex -0.06 -0.00134164 0.00067082
      vertex -0.0480528 0.00984363 0.020875
      vertex -0.0499472 0.0121564 0.021125
    endloop
  endfacet
  facet normal -0.924222 0.170771 0.341541
    outer loop
      vertex -0.06 -0.00134164 0.00067082
      vertex -0.0499472 0.0121564 0.021125
      vertex -0.06 0.00134164 -0.00067082
    endloop
  endfacet
  facet normal -0.0104205 -0.439057 0.898399
    outer loop
      vertex -0.05 -0.00118017 0.000925844
      vertex -0.04 -0.000968913 0.00114508
      vertex -0.03795 0.0200166 0.0114247
    endloop
  endfacet
  facet normal 0.79175 -0.565044 0.232074
    outer loop
      vertex -0.05 -0.00118017 0.000925844
      vertex -0.03795 0.0200166 0.0114247
      vertex -0.0429811 0.0149103 0.0161566
    endloop
  endfacet
  facet normal 0.000235477 0.725425 -0.688301
    outer loop
      vertex -0.04 0.000968913 -0.00114508
      vertex -0.05 0.00118017 -0.000925844
      vertex -0.0450189 0.0170897 0.0158434
    endloop
  endfacet
  facet normal -0.814648 0.281012 -0.507328
    outer loop
      vertex -0.04 0.000968913 -0.00114508
      vertex -0.0450189 0.0170897 0.0158434
      vertex -0.04005 0.0219834 0.0105753
    endloop
  endfacet
  facet normal 0.995933 -0.068781 -0.0581993
    outer loop
      vertex -0.03795 0.0200166 0.0114247
      vertex -0.04 -0.000968913 0.00114508
      vertex -0.04 0.000968913 -0.00114508
    endloop
  endfacet
  facet normal 0.629652 0.379553 -0.677848
    outer loop
      vertex -0.03795 0.0200166 0.0114247
      vertex -0.04 0.000968913 -0.00114508
      vertex -0.04005 0.0219834 0.0105753
    endloop
  endfacet
  facet normal 0.85558 -0.424379 -0.296454
    outer loop
      vertex -0.03795 0.0200166 0.0114247
      vertex -0.0319638 0.0320545 0.0114686
      vertex -0.028134 0.028134 0.028134
    endloop
  endfacet
  facet normal 0.687084 -0.724747 -0.0515508
    outer loop
      vertex -0.03795 0.0200166 0.0114247
      vertex -0.028134 0.028134 0.028134
      vertex -0.0429811 0.0149103 0.0161566
    endloop
  endfacet
  facet normal -0.81754 0.466274 -0.337959
    outer loop
      vertex -0.0340362 0.0339455 0.0125314
      vertex -0.04005 0.0219834 0.0105753
      vertex -0.0450189 0.0170897 0.0158434
    endloop
  endfacet
  facet normal -0.76529 0.560743 0.316068
    outer loop
      vertex -0.0340362 0.0339455 0.0125314
      vertex -0.0450189 0.0170897 0.0158434
      vertex -0.029866 0.029866 0.029866
    endloop
  endfacet
  facet normal 0.265865 -0.128723 -0.955377
    outer loop
      vertex -0.0319638 0.0320545 0.0114686
      vertex -0.03795 0.0200166 0.0114247
      vertex -0.04005 0.0219834 0.0105753
    endloop
  endfacet
  facet normal -0.232894 0.269867 -0.934308
    outer loop
      vertex -0.0319638 0.0320545 0.0114686
      vertex -0.04005 0.0219834 0.0105753
      vertex -0.0340362 0.0339455 0.0125314
    endloop
  endfacet
endsolid
