solid
  facet normal 0.583088 0.577338 0.571567
    outer loop
      vertex 0.0550557 0.0266986 0.0408397
      vertex 0.0553005 0.0408423 0.0263034
      vertex 0.0408239 0.0550884 0.0266819
    endloop
  endfacet
  facet normal -0.571036 -0.577232 -0.583713
    outer loop
      vertex 0.0529835 0.0391577 0.0254126
      vertex 0.0532263 0.0250174 0.0391583
      vertex 0.0391781 0.0531956 0.0250361
    endloop
  endfacet
  facet normal 0.200089 0.228636 -0.952728
    outer loop
      vertex 0.0408239 0.0550884 0.0266819
      vertex 0.0553005 0.0408423 0.0263034
      vertex 0.0529835 0.0391577 0.0254126
    endloop
  endfacet
  facet normal 0.403739 0.37467 -0.834636
    outer loop
      vertex 0.0408239 0.0550884 0.0266819
      vertex 0.0529835 0.0391577 0.0254126
      vertex 0.0391781 0.0531956 0.0250361
    endloop
  endfacet
  facet normal 0.575798 0.577343 0.578906
    outer loop
      vertex 0.0550557 0.0266986 0.0408397
      vertex 0.0408239 0.0550884 0.0266819
      vertex 0.0264223 0.0552355 0.0408594
    endloop
  endfacet
  facet normal -0.578991 -0.57724 -0.575815
    outer loop
      vertex 0.0391781 0.0531956 0.0250361
      vertex 0.0532263 0.0250174 0.0391583
      vertex 0.0252957 0.0530485 0.0391426
    endloop
  endfacet
  facet normal 0.57732 0.578873 0.575853
    outer loop
      vertex 0.0550557 0.0266986 0.0408397
      vertex 0.0264223 0.0552355 0.0408594
      vertex 0.0266809 0.0408228 0.0550885
    endloop
  endfacet
  facet normal -0.577423 -0.575679 -0.578944
    outer loop
      vertex 0.0252957 0.0530485 0.0391426
      vertex 0.0532263 0.0250174 0.0391583
      vertex 0.0250351 0.0391772 0.0531955
    endloop
  endfacet
  facet normal -0.925159 0.25814 0.278287
    outer loop
      vertex 0.0266809 0.0408228 0.0550885
      vertex 0.0264223 0.0552355 0.0408594
      vertex 0.0252957 0.0530485 0.0391426
    endloop
  endfacet
  facet normal -0.8349 0.399379 0.378733
    outer loop
      vertex 0.0266809 0.0408228 0.0550885
      vertex 0.0252957 0.0530485 0.0391426
      vertex 0.0250351 0.0391772 0.0531955
    endloop
  endfacet
  facet normal 0.577324 0.571524 0.583145
    outer loop
      vertex 0.0550557 0.0266986 0.0408397
      vertex 0.0266809 0.0408228 0.0550885
      vertex 0.0408414 0.0263033 0.0552995
    endloop
  endfacet
  facet normal -0.577425 -0.583565 -0.570993
    outer loop
      vertex 0.0250351 0.0391772 0.0531955
      vertex 0.0532263 0.0250174 0.0391583
      vertex 0.0391566 0.0254127 0.0529825
    endloop
  endfacet
  facet normal 0.229379 -0.952684 0.199446
    outer loop
      vertex 0.0550557 0.0266986 0.0408397
      vertex 0.0408414 0.0263033 0.0552995
      vertex 0.0391566 0.0254127 0.0529825
    endloop
  endfacet
  facet normal 0.381623 -0.827391 0.412053
    outer loop
      vertex 0.0550557 0.0266986 0.0408397
      vertex 0.0391566 0.0254127 0.0529825
      vertex 0.0532263 0.0250174 0.0391583
    endloop
  endfacet
  facet normal 0.733345 0.481051 0.480411
    outer loop
      vertex 0.0703925 0.0164285 0.0277119
      vertex 0.0553005 0.0408423 0.0263034
      vertex 0.0550557 0.0266986 0.0408397
    endloop
  endfacet
  facet normal -0.725486 -0.486088 -0.487225
    outer loop
      vertex 0.0529835 0.0391577 0.0254126
      vertex 0.0679475 0.0146995 0.0275321
      vertex 0.0532263 0.0250174 0.0391583
    endloop
  endfacet
  facet normal 0.0716607 -0.743246 0.665169
    outer loop
      vertex 0.0703925 0.0164285 0.0277119
      vertex 0.0550557 0.0266986 0.0408397
      vertex 0.0532263 0.0250174 0.0391583
    endloop
  endfacet
  facet normal 0.293438 -0.49967 0.814999
    outer loop
      vertex 0.0703925 0.0164285 0.0277119
      vertex 0.0532263 0.0250174 0.0391583
      vertex 0.0679475 0.0146995 0.0275321
    endloop
  endfacet
  facet normal 0.832938 0.501395 -0.234132
    outer loop
      vertex 0.0703925 0.0164285 0.0277119
      vertex 0.0602913 0.0260172 0.0123106
      vertex 0.0553005 0.0408423 0.0263034
    endloop
  endfacet
  facet normal -0.837 -0.491193 0.241164
    outer loop
      vertex 0.0584347 0.0241268 0.0137174
      vertex 0.0679475 0.0146995 0.0275321
      vertex 0.0529835 0.0391577 0.0254126
    endloop
  endfacet
  facet normal -0.751441 0.301142 -0.587068
    outer loop
      vertex 0.0553005 0.0408423 0.0263034
      vertex 0.0602913 0.0260172 0.0123106
      vertex 0.0584347 0.0241268 0.0137174
    endloop
  endfacet
  facet normal -0.115256 0.58362 -0.803806
    outer loop
      vertex 0.0553005 0.0408423 0.0263034
      vertex 0.0584347 0.0241268 0.0137174
      vertex 0.0529835 0.0391577 0.0254126
    endloop
  endfacet
  facet normal 0.755908 0.648147 -0.0922441
    outer loop
      vertex 0.08 0.00114105 -0.000974489
      vertex 0.0602913 0.0260172 0.0123106
      vertex 0.0703925 0.0164285 0.0277119
    endloop
  endfacet
  facet normal -0.744396 -0.665155 0.0586833
    outer loop
      vertex 0.0584347 0.0241268 0.0137174
      vertex 0.08 -0.00113105 0.000984489
      vertex 0.0679475 0.0146995 0.0275321
    endloop
  endfacet
  facet normal 0.462224 -0.708978 0.532634
    outer loop
      vertex 0.08 0.00114105 -0.000974489
      vertex 0.0703925 0.0164285 0.0277119
      vertex 0.0679475 0.0146995 0.0275321
    endloop
  endfacet
  facet normal 0.929786 0.240367 0.278786
    outer loop
      vertex 0.08 0.00114105 -0.000974489
      vertex 0.0679475 0.0146995 0.0275321
      vertex 0.08 -0.00113105 0.000984489
    endloop
  endfacet
  facet normal 0.00497991 0.474141 -0.880435
    outer loop
      vertex 0.08 0.00114105 -0.000974489
      vertex 0.0600001 0.000694049 -0.00132833
      vertex 0.0602913 0.0260172 0.0123106
    endloop
  endfacet
  facet normal 0.00577045 -0.446212 0.894909
    outer loop
      vertex 0.0599999 -0.000688049 0.00133433
      vertex 0.08 -0.00113105 0.000984489
      vertex 0.0584347 0.0241268 0.0137174
    endloop
  endfacet
  facet normal -0.999949 0.00900849 0.00462843
    outer loop
      vertex 0.0602913 0.0260172 0.0123106
      vertex 0.0600001 0.000694049 -0.00132833
      vertex 0.0599999 -0.000688049 0.00133433
    endloop
  endfacet
  facet normal -0.738425 0.26323 -0.620836
    outer loop
      vertex 0.0602913 0.0260172 0.0123106
      vertex 0.0599999 -0.000688049 0.00133433
      vertex 0.0584347 0.0241268 0.0137174
    endloop
  endfacet
  facet normal 0.480526 0.733627 0.480507
    outer loop
      vertex 0.0277118 0.0703925 0.0164285
      vertex 0.0264223 0.0552355 0.0408594
      vertex 0.0408239 0.0550884 0.0266819
    endloop
  endfacet
  facet normal -0.486842 -0.725351 -0.486674
    outer loop
      vertex 0.0252957 0.0530485 0.0391426
      vertex 0.0275322 0.0679475 0.0146995
      vertex 0.0391781 0.0531956 0.0250361
    endloop
  endfacet
  facet normal 0.66394 0.0700466 -0.744498
    outer loop
      vertex 0.0277118 0.0703925 0.0164285
      vertex 0.0408239 0.0550884 0.0266819
      vertex 0.0391781 0.0531956 0.0250361
    endloop
  endfacet
  facet normal 0.815065 0.293398 -0.499586
    outer loop
      vertex 0.0277118 0.0703925 0.0164285
      vertex 0.0391781 0.0531956 0.0250361
      vertex 0.0275322 0.0679475 0.0146995
    endloop
  endfacet
  facet normal -0.231941 0.832014 0.503941
    outer loop
      vertex 0.0277118 0.0703925 0.0164285
      vertex 0.0123106 0.0602913 0.0260172
      vertex 0.0264223 0.0552355 0.0408594
    endloop
  endfacet
  facet normal 0.24366 -0.837892 -0.488433
    outer loop
      vertex 0.0137174 0.0584347 0.0241268
      vertex 0.0275322 0.0679475 0.0146995
      vertex 0.0252957 0.0530485 0.0391426
    endloop
  endfacet
  facet normal -0.586574 -0.751613 0.301676
    outer loop
      vertex 0.0264223 0.0552355 0.0408594
      vertex 0.0123106 0.0602913 0.0260172
      vertex 0.0137174 0.0584347 0.0241268
    endloop
  endfacet
  facet normal -0.800327 -0.0563062 0.596914
    outer loop
      vertex 0.0264223 0.0552355 0.0408594
      vertex 0.0137174 0.0584347 0.0241268
      vertex 0.0252957 0.0530485 0.0391426
    endloop
  endfacet
  facet normal -0.0922443 0.755908 0.648147
    outer loop
      vertex -0.000974489 0.08 0.00114105
      vertex 0.0123106 0.0602913 0.0260172
      vertex 0.0277118 0.0703925 0.0164285
    endloop
  endfacet
  facet normal 0.0586831 -0.744396 -0.665155
    outer loop
      vertex 0.0137174 0.0584347 0.0241268
      vertex 0.000984489 0.08 -0.00113105
      vertex 0.0275322 0.0679475 0.0146995
    endloop
  endfacet
  facet normal 0.532634 0.462228 -0.708976
    outer loop
      vertex -0.000974489 0.08 0.00114105
      vertex 0.0277118 0.0703925 0.0164285
      vertex 0.0275322 0.0679475 0.0146995
    endloop
  endfacet
  facet normal 0.278786 0.929786 0.240367
    outer loop
      vertex -0.000974489 0.08 0.00114105
      vertex 0.0275322 0.0679475 0.0146995
      vertex 0.000984489 0.08 -0.00113105
    endloop
  endfacet
  facet normal -0.880435 0.00497991 0.474141
    outer loop
      vertex -0.000974489 0.08 0.00114105
      vertex -0.00132833 0.0600001 0.000694049
      vertex 0.0123106 0.0602913 0.0260172
    endloop
  endfacet
  facet normal 0.894909 0.00577043 -0.446212
    outer loop
      vertex 0.00133433 0.0599999 -0.000688049
      vertex 0.000984489 0.08 -0.00113105
      vertex 0.0137174 0.0584347 0.0241268
    endloop
  endfacet
  facet normal 0.00462843 -0.999949 0.0090085
    outer loop
      vertex 0.0123106 0.0602913 0.0260172
      vertex -0.00132833 0.0600001 0.000694049
      vertex 0.00133433 0.0599999 -0.000688049
    endloop
  endfacet
  facet normal -0.620835 -0.738426 0.26323
    outer loop
      vertex 0.0123106 0.0602913 0.0260172
      vertex 0.00133433 0.0599999 -0.000688049
      vertex 0.0137174 0.0584347 0.0241268
    endloop
  endfacet
  facet normal 0.481198 0.479961 0.733543
    outer loop
      vertex 0.0164286 0.0277119 0.0703925
      vertex 0.0408414 0.0263033 0.0552995
      vertex 0.0266809 0.0408228 0.0550885
    endloop
  endfacet
  facet normal -0.486071 -0.487453 -0.725344
    outer loop
      vertex 0.0391566 0.0254127 0.0529825
      vertex 0.0146994 0.0275321 0.0679475
      vertex 0.0250351 0.0391772 0.0531955
    endloop
  endfacet
  facet normal -0.744472 0.663965 0.0700876
    outer loop
      vertex 0.0164286 0.0277119 0.0703925
      vertex 0.0266809 0.0408228 0.0550885
      vertex 0.0250351 0.0391772 0.0531955
    endloop
  endfacet
  facet normal -0.499564 0.815077 0.293403
    outer loop
      vertex 0.0164286 0.0277119 0.0703925
      vertex 0.0250351 0.0391772 0.0531955
      vertex 0.0146994 0.0275321 0.0679475
    endloop
  endfacet
  facet normal 0.50144 -0.234093 0.832922
    outer loop
      vertex 0.0164286 0.0277119 0.0703925
      vertex 0.0260173 0.0123106 0.0602913
      vertex 0.0408414 0.0263033 0.0552995
    endloop
  endfacet
  facet normal -0.491243 0.241118 -0.836984
    outer loop
      vertex 0.0241267 0.0137174 0.0584347
      vertex 0.0146994 0.0275321 0.0679475
      vertex 0.0391566 0.0254127 0.0529825
    endloop
  endfacet
  facet normal 0.301122 -0.587085 -0.751437
    outer loop
      vertex 0.0408414 0.0263033 0.0552995
      vertex 0.0260173 0.0123106 0.0602913
      vertex 0.0241267 0.0137174 0.0584347
    endloop
  endfacet
  facet normal 0.583614 -0.803795 -0.115361
    outer loop
      vertex 0.0408414 0.0263033 0.0552995
      vertex 0.0241267 0.0137174 0.0584347
      vertex 0.0391566 0.0254127 0.0529825
    endloop
  endfacet
  facet normal 0.648147 -0.0922444 0.755908
    outer loop
      vertex 0.00114105 -0.000974489 0.08
      vertex 0.0260173 0.0123106 0.0602913
      vertex 0.0164286 0.0277119 0.0703925
    endloop
  endfacet
  facet normal -0.665155 0.0586831 -0.744396
    outer loop
      vertex 0.0241267 0.0137174 0.0584347
      vertex -0.00113105 0.000984489 0.08
      vertex 0.0146994 0.0275321 0.0679475
    endloop
  endfacet
  facet normal -0.708957 0.532635 0.462255
    outer loop
      vertex 0.00114105 -0.000974489 0.08
      vertex 0.0164286 0.0277119 0.0703925
      vertex 0.0146994 0.0275321 0.0679475
    endloop
  endfacet
  facet normal 0.240366 0.278786 0.929786
    outer loop
      vertex 0.00114105 -0.000974489 0.08
      vertex 0.0146994 0.0275321 0.0679475
      vertex -0.00113105 0.000984489 0.08
    endloop
  endfacet
  facet normal 0.474141 -0.880435 0.00497989
    outer loop
      vertex 0.00114105 -0.000974489 0.08
      vertex 0.000694049 -0.00132833 0.0600001
      vertex 0.0260173 0.0123106 0.0602913
    endloop
  endfacet
  facet normal -0.446212 0.894909 0.00577046
    outer loop
      vertex -0.000688049 0.00133433 0.0599999
      vertex -0.00113105 0.000984489 0.08
      vertex 0.0241267 0.0137174 0.0584347
    endloop
  endfacet
  facet normal 0.00900814 0.00462824 -0.999949
    outer loop
      vertex 0.0260173 0.0123106 0.0602913
      vertex 0.000694049 -0.00132833 0.0600001
      vertex -0.000688049 0.00133433 0.0599999
    endloop
  endfacet
  facet normal 0.26323 -0.620836 -0.738426
    outer loop
      vertex 0.0260173 0.0123106 0.0602913
      vertex -0.000688049 0.00133433 0.0599999
      vertex 0.0241267 0.0137174 0.0584347
    endloop
  endfacet
  facet normal -0.583088 -0.577338 0.571567
    outer loop
      vertex -0.0550557 -0.0266986 0.0408397
      vertex -0.0553005 -0.0408423 0.0263034
      vertex -0.0408239 -0.0550884 0.0266819
    endloop
  endfacet
  facet normal 0.571036 0.577232 -0.583713
    outer loop
      vertex -0.0529835 -0.0391577 0.0254126
      vertex -0.0532263 -0.0250174 0.0391583
      vertex -0.0391781 -0.0531956 0.0250361
    endloop
  endfacet
  facet normal -0.200089 -0.228636 -0.952728
    outer loop
      vertex -0.0408239 -0.0550884 0.0266819
      vertex -0.0553005 -0.0408423 0.0263034
      vertex -0.0529835 -0.0391577 0.0254126
    endloop
  endfacet
  facet normal -0.403739 -0.37467 -0.834636
    outer loop
      vertex -0.0408239 -0.0550884 0.0266819
      vertex -0.0529835 -0.0391577 0.0254126
      vertex -0.0391781 -0.0531956 0.0250361
    endloop
  endfacet
  facet normal -0.575798 -0.577343 0.578906
    outer loop
      vertex -0.0550557 -0.0266986 0.0408397
      vertex -0.0408239 -0.0550884 0.0266819
      vertex -0.0264223 -0.0552355 0.0408594
    endloop
  endfacet
  facet normal 0.578991 0.57724 -0.575815
    outer loop
      vertex -0.0391781 -0.0531956 0.0250361
      vertex -0.0532263 -0.0250174 0.0391583
      vertex -0.0252957 -0.0530485 0.0391426
    endloop
  endfacet
  facet normal -0.57732 -0.578873 0.575853
    outer loop
      vertex -0.0550557 -0.0266986 0.0408397
      vertex -0.0264223 -0.0552355 0.0408594
      vertex -0.0266809 -0.0408228 0.0550885
    endloop
  endfacet
  facet normal 0.577423 0.575679 -0.578944
    outer loop
      vertex -0.0252957 -0.0530485 0.0391426
      vertex -0.0532263 -0.0250174 0.0391583
      vertex -0.0250351 -0.0391772 0.0531955
    endloop
  endfacet
  facet normal 0.925159 -0.25814 0.278287
    outer loop
      vertex -0.0266809 -0.0408228 0.0550885
      vertex -0.0264223 -0.0552355 0.0408594
      vertex -0.0252957 -0.0530485 0.0391426
    endloop
  endfacet
  facet normal 0.8349 -0.399379 0.378733
    outer loop
      vertex -0.0266809 -0.0408228 0.0550885
      vertex -0.0252957 -0.0530485 0.0391426
      vertex -0.0250351 -0.0391772 0.0531955
    endloop
  endfacet
  facet normal -0.577324 -0.571524 0.583145
    outer loop
      vertex -0.0550557 -0.0266986 0.0408397
      vertex -0.0266809 -0.0408228 0.0550885
      vertex -0.0408414 -0.0263033 0.0552995
    endloop
  endfacet
  facet normal 0.577425 0.583565 -0.570993
    outer loop
      vertex -0.0250351 -0.0391772 0.0531955
      vertex -0.0532263 -0.0250174 0.0391583
      vertex -0.0391566 -0.0254127 0.0529825
    endloop
  endfacet
  facet normal -0.229379 0.952684 0.199446
    outer loop
      vertex -0.0550557 -0.0266986 0.0408397
      vertex -0.0408414 -0.0263033 0.0552995
      vertex -0.0391566 -0.0254127 0.0529825
    endloop
  endfacet
  facet normal -0.381623 0.827391 0.412053
    outer loop
      vertex -0.0550557 -0.0266986 0.0408397
      vertex -0.0391566 -0.0254127 0.0529825
      vertex -0.0532263 -0.0250174 0.0391583
    endloop
  endfacet
  facet normal -0.733345 -0.481051 0.480411
    outer loop
      vertex -0.0703925 -0.0164285 0.0277119
      vertex -0.0553005 -0.0408423 0.0263034
      vertex -0.0550557 -0.0266986 0.0408397
    endloop
  endfacet
  facet normal 0.725486 0.486088 -0.487225
    outer loop
      vertex -0.0529835 -0.0391577 0.0254126
      vertex -0.0679475 -0.0146995 0.0275321
      vertex -0.0532263 -0.0250174 0.0391583
    endloop
  endfacet
  facet normal -0.0716607 0.743246 0.665169
    outer loop
      vertex -0.0703925 -0.0164285 0.0277119
      vertex -0.0550557 -0.0266986 0.0408397
      vertex -0.0532263 -0.0250174 0.0391583
    endloop
  endfacet
  facet normal -0.293438 0.49967 0.814999
    outer loop
      vertex -0.0703925 -0.0164285 0.0277119
      vertex -0.0532263 -0.0250174 0.0391583
      vertex -0.0679475 -0.0146995 0.0275321
    endloop
  endfacet
  facet normal -0.832938 -0.501395 -0.234132
    outer loop
      vertex -0.0703925 -0.0164285 0.0277119
      vertex -0.0602913 -0.0260172 0.0123106
      vertex -0.0553005 -0.0408423 0.0263034
    endloop
  endfacet
  facet normal 0.837 0.491193 0.241164
    outer loop
      vertex -0.0584347 -0.0241268 0.0137174
      vertex -0.0679475 -0.0146995 0.0275321
      vertex -0.0529835 -0.0391577 0.0254126
    endloop
  endfacet
  facet normal 0.751441 -0.301142 -0.587068
    outer loop
      vertex -0.0553005 -0.0408423 0.0263034
      vertex -0.0602913 -0.0260172 0.0123106
      vertex -0.0584347 -0.0241268 0.0137174
    endloop
  endfacet
  facet normal 0.115256 -0.58362 -0.803806
    outer loop
      vertex -0.0553005 -0.0408423 0.0263034
      vertex -0.0584347 -0.0241268 0.0137174
      vertex -0.0529835 -0.0391577 0.0254126
    endloop
  endfacet
  facet normal -0.755908 -0.648147 -0.0922441
    outer loop
      vertex -0.08 -0.00114105 -0.000974489
      vertex -0.0602913 -0.0260172 0.0123106
      vertex -0.0703925 -0.0164285 0.0277119
    endloop
  endfacet
  facet normal 0.744396 0.665155 0.0586833
    outer loop
      vertex -0.0584347 -0.0241268 0.0137174
      vertex -0.08 0.00113105 0.000984489
      vertex -0.0679475 -0.0146995 0.0275321
    endloop
  endfacet
  facet normal -0.462224 0.708978 0.532634
    outer loop
      vertex -0.08 -0.00114105 -0.000974489
      vertex -0.0703925 -0.0164285 0.0277119
      vertex -0.0679475 -0.0146995 0.0275321
    endloop
  endfacet
  facet normal -0.929786 -0.240367 0.278786
    outer loop
      vertex -0.08 -0.00114105 -0.000974489
      vertex -0.0679475 -0.0146995 0.0275321
      vertex -0.08 0.00113105 0.000984489
    endloop
  endfacet
  facet normal -0.00497991 -0.474141 -0.880435
    outer loop
      vertex -0.08 -0.00114105 -0.000974489
      vertex -0.0600001 -0.000694049 -0.00132833
      vertex -0.0602913 -0.0260172 0.0123106
    endloop
  endfacet
  facet normal -0.00577045 0.446212 0.894909
    outer loop
      vertex -0.0599999 0.000688049 0.00133433
      vertex -0.08 0.00113105 0.000984489
      vertex -0.0584347 -0.0241268 0.0137174
    endloop
  endfacet
  facet normal 0.999949 -0.00900849 0.00462843
    outer loop
      vertex -0.0602913 -0.0260172 0.0123106
      vertex -0.0600001 -0.000694049 -0.00132833
      vertex -0.0599999 0.000688049 0.00133433
    endloop
  endfacet
  facet normal 0.738425 -0.26323 -0.620836
    outer loop
      vertex -0.0602913 -0.0260172 0.0123106
      vertex -0.0599999 0.000688049 0.00133433
      vertex -0.0584347 -0.0241268 0.0137174
    endloop
  endfacet
  facet normal -0.480526 -0.733627 0.480507
    outer loop
      vertex -0.0277118 -0.0703925 0.0164285
      vertex -0.0264223 -0.0552355 0.0408594
      vertex -0.0408239 -0.0550884 0.0266819
    endloop
  endfacet
  facet normal 0.486842 0.725351 -0.486674
    outer loop
      vertex -0.0252957 -0.0530485 0.0391426
      vertex -0.0275322 -0.0679475 0.0146995
      vertex -0.0391781 -0.0531956 0.0250361
    endloop
  endfacet
  facet normal -0.66394 -0.0700466 -0.744498
    outer loop
      vertex -0.0277118 -0.0703925 0.0164285
      vertex -0.0408239 -0.0550884 0.0266819
      vertex -0.0391781 -0.0531956 0.0250361
    endloop
  endfacet
  facet normal -0.815065 -0.293398 -0.499586
    outer loop
      vertex -0.0277118 -0.0703925 0.0164285
      vertex -0.0391781 -0.0531956 0.0250361
      vertex -0.0275322 -0.0679475 0.0146995
    endloop
  endfacet
  facet normal 0.231941 -0.832014 0.503941
    outer loop
      vertex -0.0277118 -0.0703925 0.0164285
      vertex -0.0123106 -0.0602913 0.0260172
      vertex -0.0264223 -0.0552355 0.0408594
    endloop
  endfacet
  facet normal -0.24366 0.837892 -0.488433
    outer loop
      vertex -0.0137174 -0.0584347 0.0241268
      vertex -0.0275322 -0.0679475 0.0146995
      vertex -0.0252957 -0.0530485 0.0391426
    endloop
  endfacet
  facet normal 0.586574 0.751613 0.301676
    outer loop
      vertex -0.0264223 -0.0552355 0.0408594
      vertex -0.0123106 -0.0602913 0.0260172
      vertex -0.0137174 -0.0584347 0.0241268
    endloop
  endfacet
  facet normal 0.800327 0.0563062 0.596914
    outer loop
      vertex -0.0264223 -0.0552355 0.0408594
      vertex -0.0137174 -0.0584347 0.0241268
      vertex -0.0252957 -0.0530485 0.0391426
    endloop
  endfacet
  facet normal 0.0922443 -0.755908 0.648147
    outer loop
      vertex 0.000974489 -0.08 0.00114105
      vertex -0.0123106 -0.0602913 0.0260172
      vertex -0.0277118 -0.0703925 0.0164285
    endloop
  endfacet
  facet normal -0.0586831 0.744396 -0.665155
    outer loop
      vertex -0.0137174 -0.0584347 0.0241268
      vertex -0.000984489 -0.08 -0.00113105
      vertex -0.0275322 -0.0679475 0.0146995
    endloop
  endfacet
  facet normal -0.532634 -0.462228 -0.708976
    outer loop
      vertex 0.000974489 -0.08 0.00114105
      vertex -0.0277118 -0.0703925 0.0164285
      vertex -0.0275322 -0.0679475 0.0146995
    endloop
  endfacet
  facet normal -0.278786 -0.929786 0.240367
    outer loop
      vertex 0.000974489 -0.08 0.00114105
      vertex -0.0275322 -0.0679475 0.0146995
      vertex -0.000984489 -0.08 -0.00113105
    endloop
  endfacet
  facet normal 0.880435 -0.00497991 0.474141
    outer loop
      vertex 0.000974489 -0.08 0.00114105
      vertex 0.00132833 -0.0600001 0.000694049
      vertex -0.0123106 -0.0602913 0.0260172
    endloop
  endfacet
  facet normal -0.894909 -0.00577043 -0.446212
    outer loop
      vertex -0.00133433 -0.0599999 -0.000688049
      vertex -0.000984489 -0.08 -0.00113105
      vertex -0.0137174 -0.0584347 0.0241268
    endloop
  endfacet
  facet normal -0.00462843 0.999949 0.0090085
    outer loop
      vertex -0.0123106 -0.0602913 0.0260172
      vertex 0.00132833 -0.0600001 0.000694049
      vertex -0.00133433 -0.0599999 -0.000688049
    endloop
  endfacet
  facet normal 0.620835 0.738426 0.26323
    outer loop
      vertex -0.0123106 -0.0602913 0.0260172
      vertex -0.00133433 -0.0599999 -0.000688049
      vertex -0.0137174 -0.0584347 0.0241268
    endloop
  endfacet
  facet normal -0.481197 -0.479961 0.733544
    outer loop
      vertex -0.0164285 -0.0277118 0.0703925
      vertex -0.0408414 -0.0263033 0.0552995
      vertex -0.0266809 -0.0408228 0.0550885
    endloop
  endfacet
  facet normal 0.486072 0.487453 -0.725344
    outer loop
      vertex -0.0391566 -0.0254127 0.0529825
      vertex -0.0146995 -0.0275322 0.0679475
      vertex -0.0250351 -0.0391772 0.0531955
    endloop
  endfacet
  facet normal 0.744472 -0.663965 0.0700876
    outer loop
      vertex -0.0164285 -0.0277118 0.0703925
      vertex -0.0266809 -0.0408228 0.0550885
      vertex -0.0250351 -0.0391772 0.0531955
    endloop
  endfacet
  facet normal 0.499557 -0.815079 0.293409
    outer loop
      vertex -0.0164285 -0.0277118 0.0703925
      vertex -0.0250351 -0.0391772 0.0531955
      vertex -0.0146995 -0.0275322 0.0679475
    endloop
  endfacet
  facet normal -0.50144 0.234095 0.832921
    outer loop
      vertex -0.0164285 -0.0277118 0.0703925
      vertex -0.0260172 -0.0123106 0.0602913
      vertex -0.0408414 -0.0263033 0.0552995
    endloop
  endfacet
  facet normal 0.491243 -0.241117 -0.836985
    outer loop
      vertex -0.0241268 -0.0137174 0.0584347
      vertex -0.0146995 -0.0275322 0.0679475
      vertex -0.0391566 -0.0254127 0.0529825
    endloop
  endfacet
  facet normal -0.301112 0.587076 -0.751448
    outer loop
      vertex -0.0408414 -0.0263033 0.0552995
      vertex -0.0260172 -0.0123106 0.0602913
      vertex -0.0241268 -0.0137174 0.0584347
    endloop
  endfacet
  facet normal -0.583613 0.803796 -0.11536
    outer loop
      vertex -0.0408414 -0.0263033 0.0552995
      vertex -0.0241268 -0.0137174 0.0584347
      vertex -0.0391566 -0.0254127 0.0529825
    endloop
  endfacet
  facet normal -0.648044 0.0923583 0.755982
    outer loop
      vertex -0.00113105 0.000984489 0.08
      vertex -0.0260172 -0.0123106 0.0602913
      vertex -0.0164285 -0.0277118 0.0703925
    endloop
  endfacet
  facet normal 0.66505 -0.0588111 -0.74448
    outer loop
      vertex -0.0241268 -0.0137174 0.0584347
      vertex 0.00114105 -0.000974489 0.08
      vertex -0.0146995 -0.0275322 0.0679475
    endloop
  endfacet
  facet normal 0.708944 -0.532678 0.462225
    outer loop
      vertex -0.00113105 0.000984489 0.08
      vertex -0.0164285 -0.0277118 0.0703925
      vertex -0.0146995 -0.0275322 0.0679475
    endloop
  endfacet
  facet normal -0.24027 -0.278674 0.929845
    outer loop
      vertex -0.00113105 0.000984489 0.08
      vertex -0.0146995 -0.0275322 0.0679475
      vertex 0.00114105 -0.000974489 0.08
    endloop
  endfacet
  facet normal -0.474216 0.880395 0.0048963
    outer loop
      vertex -0.00113105 0.000984489 0.08
      vertex -0.000688049 0.00133433 0.0599999
      vertex -0.0260172 -0.0123106 0.0602913
    endloop
  endfacet
  facet normal 0.446295 -0.894867 0.00585761
    outer loop
      vertex 0.000694049 -0.00132833 0.0600001
      vertex 0.00114105 -0.000974489 0.08
      vertex -0.0241268 -0.0137174 0.0584347
    endloop
  endfacet
  facet normal -0.00896914 -0.00470313 -0.999949
    outer loop
      vertex -0.0260172 -0.0123106 0.0602913
      vertex -0.000688049 0.00133433 0.0599999
      vertex 0.000694049 -0.00132833 0.0600001
    endloop
  endfacet
  facet normal -0.263281 0.620773 -0.73846
    outer loop
      vertex -0.0260172 -0.0123106 0.0602913
      vertex 0.000694049 -0.00132833 0.0600001
      vertex -0.0241268 -0.0137174 0.0584347
    endloop
  endfacet
  facet normal 0.583088 -0.577338 -0.571567
    outer loop
      vertex 0.0550557 -0.0266986 -0.0408397
      vertex 0.0553005 -0.0408423 -0.0263034
      vertex 0.0408239 -0.0550884 -0.0266819
    endloop
  endfacet
  facet normal -0.571036 0.577232 0.583713
    outer loop
      vertex 0.0529835 -0.0391577 -0.0254126
      vertex 0.0532263 -0.0250174 -0.0391583
      vertex 0.0391781 -0.0531956 -0.0250361
    endloop
  endfacet
  facet normal 0.200089 -0.228636 0.952728
    outer loop
      vertex 0.0408239 -0.0550884 -0.0266819
      vertex 0.0553005 -0.0408423 -0.0263034
      vertex 0.0529835 -0.0391577 -0.0254126
    endloop
  endfacet
  facet normal 0.403739 -0.37467 0.834636
    outer loop
      vertex 0.0408239 -0.0550884 -0.0266819
      vertex 0.0529835 -0.0391577 -0.0254126
      vertex 0.0391781 -0.0531956 -0.0250361
    endloop
  endfacet
  facet normal 0.575798 -0.577343 -0.578906
    outer loop
      vertex 0.0550557 -0.0266986 -0.0408397
      vertex 0.0408239 -0.0550884 -0.0266819
      vertex 0.0264223 -0.0552355 -0.0408594
    endloop
  endfacet
  facet normal -0.578991 0.57724 0.575815
    outer loop
      vertex 0.0391781 -0.0531956 -0.0250361
      vertex 0.0532263 -0.0250174 -0.0391583
      vertex 0.0252957 -0.0530485 -0.0391426
    endloop
  endfacet
  facet normal 0.57732 -0.578873 -0.575853
    outer loop
      vertex 0.0550557 -0.0266986 -0.0408397
      vertex 0.0264223 -0.0552355 -0.0408594
      vertex 0.0266809 -0.0408228 -0.0550885
    endloop
  endfacet
  facet normal -0.577423 0.575679 0.578944
    outer loop
      vertex 0.0252957 -0.0530485 -0.0391426
      vertex 0.0532263 -0.0250174 -0.0391583
      vertex 0.0250351 -0.0391772 -0.0531955
    endloop
  endfacet
  facet normal -0.925159 -0.25814 -0.278287
    outer loop
      vertex 0.0266809 -0.0408228 -0.0550885
      vertex 0.0264223 -0.0552355 -0.0408594
      vertex 0.0252957 -0.0530485 -0.0391426
    endloop
  endfacet
  facet normal -0.8349 -0.399379 -0.378733
    outer loop
      vertex 0.0266809 -0.0408228 -0.0550885
      vertex 0.0252957 -0.0530485 -0.0391426
      vertex 0.0250351 -0.0391772 -0.0531955
    endloop
  endfacet
  facet normal 0.577324 -0.571524 -0.583145
    outer loop
      vertex 0.0550557 -0.0266986 -0.0408397
      vertex 0.0266809 -0.0408228 -0.0550885
      vertex 0.0408414 -0.0263033 -0.0552995
    endloop
  endfacet
  facet normal -0.577425 0.583565 0.570993
    outer loop
      vertex 0.0250351 -0.0391772 -0.0531955
      vertex 0.0532263 -0.0250174 -0.0391583
      vertex 0.0391566 -0.0254127 -0.0529825
    endloop
  endfacet
  facet normal 0.229379 0.952684 -0.199446
    outer loop
      vertex 0.0550557 -0.0266986 -0.0408397
      vertex 0.0408414 -0.0263033 -0.0552995
      vertex 0.0391566 -0.0254127 -0.0529825
    endloop
  endfacet
  facet normal 0.381623 0.827391 -0.412053
    outer loop
      vertex 0.0550557 -0.0266986 -0.0408397
      vertex 0.0391566 -0.0254127 -0.0529825
      vertex 0.0532263 -0.0250174 -0.0391583
    endloop
  endfacet
  facet normal 0.733346 -0.481051 -0.480411
    outer loop
      vertex 0.0703925 -0.0164285 -0.0277118
      vertex 0.0553005 -0.0408423 -0.0263034
      vertex 0.0550557 -0.0266986 -0.0408397
    endloop
  endfacet
  facet normal -0.725485 0.486089 0.487226
    outer loop
      vertex 0.0529835 -0.0391577 -0.0254126
      vertex 0.0679475 -0.0146995 -0.0275322
      vertex 0.0532263 -0.0250174 -0.0391583
    endloop
  endfacet
  facet normal 0.0716607 0.743246 -0.665169
    outer loop
      vertex 0.0703925 -0.0164285 -0.0277118
      vertex 0.0550557 -0.0266986 -0.0408397
      vertex 0.0532263 -0.0250174 -0.0391583
    endloop
  endfacet
  facet normal 0.293445 0.499662 -0.815002
    outer loop
      vertex 0.0703925 -0.0164285 -0.0277118
      vertex 0.0532263 -0.0250174 -0.0391583
      vertex 0.0679475 -0.0146995 -0.0275322
    endloop
  endfacet
  facet normal 0.832937 -0.501395 0.234133
    outer loop
      vertex 0.0703925 -0.0164285 -0.0277118
      vertex 0.0602913 -0.0260172 -0.0123106
      vertex 0.0553005 -0.0408423 -0.0263034
    endloop
  endfacet
  facet normal -0.837001 0.491193 -0.241162
    outer loop
      vertex 0.0584347 -0.0241268 -0.0137174
      vertex 0.0679475 -0.0146995 -0.0275322
      vertex 0.0529835 -0.0391577 -0.0254126
    endloop
  endfacet
  facet normal -0.751453 -0.301131 0.587059
    outer loop
      vertex 0.0553005 -0.0408423 -0.0263034
      vertex 0.0602913 -0.0260172 -0.0123106
      vertex 0.0584347 -0.0241268 -0.0137174
    endloop
  endfacet
  facet normal -0.115256 -0.583619 0.803806
    outer loop
      vertex 0.0553005 -0.0408423 -0.0263034
      vertex 0.0584347 -0.0241268 -0.0137174
      vertex 0.0529835 -0.0391577 -0.0254126
    endloop
  endfacet
  facet normal 0.755982 -0.648044 0.092358
    outer loop
      vertex 0.08 -0.00113105 0.000984489
      vertex 0.0602913 -0.0260172 -0.0123106
      vertex 0.0703925 -0.0164285 -0.0277118
    endloop
  endfacet
  facet normal -0.74448 0.66505 -0.0588113
    outer loop
      vertex 0.0584347 -0.0241268 -0.0137174
      vertex 0.08 0.00114105 -0.000974489
      vertex 0.0679475 -0.0146995 -0.0275322
    endloop
  endfacet
  facet normal 0.462194 0.708965 -0.532677
    outer loop
      vertex 0.08 -0.00113105 0.000984489
      vertex 0.0703925 -0.0164285 -0.0277118
      vertex 0.0679475 -0.0146995 -0.0275322
    endloop
  endfacet
  facet normal 0.929844 -0.240271 -0.278675
    outer loop
      vertex 0.08 -0.00113105 0.000984489
      vertex 0.0679475 -0.0146995 -0.0275322
      vertex 0.08 0.00114105 -0.000974489
    endloop
  endfacet
  facet normal 0.0048963 -0.474216 0.880395
    outer loop
      vertex 0.08 -0.00113105 0.000984489
      vertex 0.0599999 -0.000688049 0.00133433
      vertex 0.0602913 -0.0260172 -0.0123106
    endloop
  endfacet
  facet normal 0.00585759 0.446295 -0.894867
    outer loop
      vertex 0.0600001 0.000694049 -0.00132833
      vertex 0.08 0.00114105 -0.000974489
      vertex 0.0584347 -0.0241268 -0.0137174
    endloop
  endfacet
  facet normal -0.999949 -0.00896949 -0.00470332
    outer loop
      vertex 0.0602913 -0.0260172 -0.0123106
      vertex 0.0599999 -0.000688049 0.00133433
      vertex 0.0600001 0.000694049 -0.00132833
    endloop
  endfacet
  facet normal -0.73846 -0.263281 0.620773
    outer loop
      vertex 0.0602913 -0.0260172 -0.0123106
      vertex 0.0600001 0.000694049 -0.00132833
      vertex 0.0584347 -0.0241268 -0.0137174
    endloop
  endfacet
  facet normal 0.480525 -0.733627 -0.480506
    outer loop
      vertex 0.0277118 -0.0703925 -0.0164285
      vertex 0.0264223 -0.0552355 -0.0408594
      vertex 0.0408239 -0.0550884 -0.0266819
    endloop
  endfacet
  facet normal -0.486842 0.72535 0.486674
    outer loop
      vertex 0.0252957 -0.0530485 -0.0391426
      vertex 0.0275322 -0.0679474 -0.0146995
      vertex 0.0391781 -0.0531956 -0.0250361
    endloop
  endfacet
  facet normal 0.66394 -0.0700466 0.744498
    outer loop
      vertex 0.0277118 -0.0703925 -0.0164285
      vertex 0.0408239 -0.0550884 -0.0266819
      vertex 0.0391781 -0.0531956 -0.0250361
    endloop
  endfacet
  facet normal 0.815068 -0.293403 0.499579
    outer loop
      vertex 0.0277118 -0.0703925 -0.0164285
      vertex 0.0391781 -0.0531956 -0.0250361
      vertex 0.0275322 -0.0679474 -0.0146995
    endloop
  endfacet
  facet normal -0.231942 -0.832013 -0.503942
    outer loop
      vertex 0.0277118 -0.0703925 -0.0164285
      vertex 0.0123106 -0.0602913 -0.0260172
      vertex 0.0264223 -0.0552355 -0.0408594
    endloop
  endfacet
  facet normal 0.243659 0.837893 0.488432
    outer loop
      vertex 0.0137174 -0.0584347 -0.0241268
      vertex 0.0275322 -0.0679474 -0.0146995
      vertex 0.0252957 -0.0530485 -0.0391426
    endloop
  endfacet
  facet normal -0.586565 0.751624 -0.301666
    outer loop
      vertex 0.0264223 -0.0552355 -0.0408594
      vertex 0.0123106 -0.0602913 -0.0260172
      vertex 0.0137174 -0.0584347 -0.0241268
    endloop
  endfacet
  facet normal -0.800327 0.0563054 -0.596914
    outer loop
      vertex 0.0264223 -0.0552355 -0.0408594
      vertex 0.0137174 -0.0584347 -0.0241268
      vertex 0.0252957 -0.0530485 -0.0391426
    endloop
  endfacet
  facet normal -0.0923585 -0.755982 -0.648044
    outer loop
      vertex -0.000984489 -0.08 -0.00113105
      vertex 0.0123106 -0.0602913 -0.0260172
      vertex 0.0277118 -0.0703925 -0.0164285
    endloop
  endfacet
  facet normal 0.0588109 0.74448 0.665049
    outer loop
      vertex 0.0137174 -0.0584347 -0.0241268
      vertex 0.000974489 -0.08 0.00114105
      vertex 0.0275322 -0.0679474 -0.0146995
    endloop
  endfacet
  facet normal 0.532677 -0.462196 0.708964
    outer loop
      vertex -0.000984489 -0.08 -0.00113105
      vertex 0.0277118 -0.0703925 -0.0164285
      vertex 0.0275322 -0.0679474 -0.0146995
    endloop
  endfacet
  facet normal 0.278675 -0.929844 -0.240271
    outer loop
      vertex -0.000984489 -0.08 -0.00113105
      vertex 0.0275322 -0.0679474 -0.0146995
      vertex 0.000974489 -0.08 0.00114105
    endloop
  endfacet
  facet normal -0.880395 -0.00489629 -0.474216
    outer loop
      vertex -0.000984489 -0.08 -0.00113105
      vertex -0.00133433 -0.0599999 -0.000688049
      vertex 0.0123106 -0.0602913 -0.0260172
    endloop
  endfacet
  facet normal 0.894867 -0.0058576 0.446295
    outer loop
      vertex 0.00132833 -0.0600001 0.000694049
      vertex 0.000974489 -0.08 0.00114105
      vertex 0.0137174 -0.0584347 -0.0241268
    endloop
  endfacet
  facet normal 0.00470332 0.999949 -0.0089695
    outer loop
      vertex 0.0123106 -0.0602913 -0.0260172
      vertex -0.00133433 -0.0599999 -0.000688049
      vertex 0.00132833 -0.0600001 0.000694049
    endloop
  endfacet
  facet normal -0.620773 0.738461 -0.26328
    outer loop
      vertex 0.0123106 -0.0602913 -0.0260172
      vertex 0.00132833 -0.0600001 0.000694049
      vertex 0.0137174 -0.0584347 -0.0241268
    endloop
  endfacet
  facet normal 0.481198 -0.479961 -0.733543
    outer loop
      vertex 0.0164286 -0.0277119 -0.0703925
      vertex 0.0408414 -0.0263033 -0.0552995
      vertex 0.0266809 -0.0408228 -0.0550885
    endloop
  endfacet
  facet normal -0.486071 0.487453 0.725344
    outer loop
      vertex 0.0391566 -0.0254127 -0.0529825
      vertex 0.0146994 -0.0275321 -0.0679475
      vertex 0.0250351 -0.0391772 -0.0531955
    endloop
  endfacet
  facet normal -0.744472 -0.663965 -0.0700876
    outer loop
      vertex 0.0164286 -0.0277119 -0.0703925
      vertex 0.0266809 -0.0408228 -0.0550885
      vertex 0.0250351 -0.0391772 -0.0531955
    endloop
  endfacet
  facet normal -0.499564 -0.815077 -0.293403
    outer loop
      vertex 0.0164286 -0.0277119 -0.0703925
      vertex 0.0250351 -0.0391772 -0.0531955
      vertex 0.0146994 -0.0275321 -0.0679475
    endloop
  endfacet
  facet normal 0.50144 0.234093 -0.832922
    outer loop
      vertex 0.0164286 -0.0277119 -0.0703925
      vertex 0.0260173 -0.0123106 -0.0602913
      vertex 0.0408414 -0.0263033 -0.0552995
    endloop
  endfacet
  facet normal -0.491243 -0.241118 0.836984
    outer loop
      vertex 0.0241267 -0.0137174 -0.0584347
      vertex 0.0146994 -0.0275321 -0.0679475
      vertex 0.0391566 -0.0254127 -0.0529825
    endloop
  endfacet
  facet normal 0.301122 0.587085 0.751437
    outer loop
      vertex 0.0408414 -0.0263033 -0.0552995
      vertex 0.0260173 -0.0123106 -0.0602913
      vertex 0.0241267 -0.0137174 -0.0584347
    endloop
  endfacet
  facet normal 0.583614 0.803795 0.115361
    outer loop
      vertex 0.0408414 -0.0263033 -0.0552995
      vertex 0.0241267 -0.0137174 -0.0584347
      vertex 0.0391566 -0.0254127 -0.0529825
    endloop
  endfacet
  facet normal 0.648147 0.0922444 -0.755908
    outer loop
      vertex 0.00114105 0.000974489 -0.08
      vertex 0.0260173 -0.0123106 -0.0602913
      vertex 0.0164286 -0.0277119 -0.0703925
    endloop
  endfacet
  facet normal -0.665155 -0.0586831 0.744396
    outer loop
      vertex 0.0241267 -0.0137174 -0.0584347
      vertex -0.00113105 -0.000984489 -0.08
      vertex 0.0146994 -0.0275321 -0.0679475
    endloop
  endfacet
  facet normal -0.708957 -0.532635 -0.462255
    outer loop
      vertex 0.00114105 0.000974489 -0.08
      vertex 0.0164286 -0.0277119 -0.0703925
      vertex 0.0146994 -0.0275321 -0.0679475
    endloop
  endfacet
  facet normal 0.240366 -0.278786 -0.929786
    outer loop
      vertex 0.00114105 0.000974489 -0.08
      vertex 0.0146994 -0.0275321 -0.0679475
      vertex -0.00113105 -0.000984489 -0.08
    endloop
  endfacet
  facet normal 0.474141 0.880435 -0.00497989
    outer loop
      vertex 0.00114105 0.000974489 -0.08
      vertex 0.000694049 0.00132833 -0.0600001
      vertex 0.0260173 -0.0123106 -0.0602913
    endloop
  endfacet
  facet normal -0.446212 -0.894909 -0.00577046
    outer loop
      vertex -0.000688049 -0.00133433 -0.0599999
      vertex -0.00113105 -0.000984489 -0.08
      vertex 0.0241267 -0.0137174 -0.0584347
    endloop
  endfacet
  facet normal 0.00900814 -0.00462824 0.999949
    outer loop
      vertex 0.0260173 -0.0123106 -0.0602913
      vertex 0.000694049 0.00132833 -0.0600001
      vertex -0.000688049 -0.00133433 -0.0599999
    endloop
  endfacet
  facet normal 0.26323 0.620836 0.738426
    outer loop
      vertex 0.0260173 -0.0123106 -0.0602913
      vertex -0.000688049 -0.00133433 -0.0599999
      vertex 0.0241267 -0.0137174 -0.0584347
    endloop
  endfacet
  facet normal -0.583088 0.577338 -0.571567
    outer loop
      vertex -0.0550557 0.0266986 -0.0408397
      vertex -0.0553005 0.0408423 -0.0263034
      vertex -0.0408239 0.0550884 -0.0266819
    endloop
  endfacet
  facet normal 0.571036 -0.577232 0.583713
    outer loop
      vertex -0.0529835 0.0391577 -0.0254126
      vertex -0.0532263 0.0250174 -0.0391583
      vertex -0.0391781 0.0531956 -0.0250361
    endloop
  endfacet
  facet normal -0.200089 0.228636 0.952728
    outer loop
      vertex -0.0408239 0.0550884 -0.0266819
      vertex -0.0553005 0.0408423 -0.0263034
      vertex -0.0529835 0.0391577 -0.0254126
    endloop
  endfacet
  facet normal -0.403739 0.37467 0.834636
    outer loop
      vertex -0.0408239 0.0550884 -0.0266819
      vertex -0.0529835 0.0391577 -0.0254126
      vertex -0.0391781 0.0531956 -0.0250361
    endloop
  endfacet
  facet normal -0.575798 0.577343 -0.578906
    outer loop
      vertex -0.0550557 0.0266986 -0.0408397
      vertex -0.0408239 0.0550884 -0.0266819
      vertex -0.0264223 0.0552355 -0.0408594
    endloop
  endfacet
  facet normal 0.578991 -0.57724 0.575815
    outer loop
      vertex -0.0391781 0.0531956 -0.0250361
      vertex -0.0532263 0.0250174 -0.0391583
      vertex -0.0252957 0.0530485 -0.0391426
    endloop
  endfacet
  facet normal -0.57732 0.578873 -0.575853
    outer loop
      vertex -0.0550557 0.0266986 -0.0408397
      vertex -0.0264223 0.0552355 -0.0408594
      vertex -0.0266809 0.0408228 -0.0550885
    endloop
  endfacet
  facet normal 0.577423 -0.575679 0.578944
    outer loop
      vertex -0.0252957 0.0530485 -0.0391426
      vertex -0.0532263 0.0250174 -0.0391583
      vertex -0.0250351 0.0391772 -0.0531955
    endloop
  endfacet
  facet normal 0.925159 0.25814 -0.278287
    outer loop
      vertex -0.0266809 0.0408228 -0.0550885
      vertex -0.0264223 0.0552355 -0.0408594
      vertex -0.0252957 0.0530485 -0.0391426
    endloop
  endfacet
  facet normal 0.8349 0.399379 -0.378733
    outer loop
      vertex -0.0266809 0.0408228 -0.0550885
      vertex -0.0252957 0.0530485 -0.0391426
      vertex -0.0250351 0.0391772 -0.0531955
    endloop
  endfacet
  facet normal -0.577324 0.571524 -0.583145
    outer loop
      vertex -0.0550557 0.0266986 -0.0408397
      vertex -0.0266809 0.0408228 -0.0550885
      vertex -0.0408414 0.0263033 -0.0552995
    endloop
  endfacet
  facet normal 0.577425 -0.583565 0.570993
    outer loop
      vertex -0.0250351 0.0391772 -0.0531955
      vertex -0.0532263 0.0250174 -0.0391583
      vertex -0.0391566 0.0254127 -0.0529825
    endloop
  endfacet
  facet normal -0.229379 -0.952684 -0.199446
    outer loop
      vertex -0.0550557 0.0266986 -0.0408397
      vertex -0.0408414 0.0263033 -0.0552995
      vertex -0.0391566 0.0254127 -0.0529825
    endloop
  endfacet
  facet normal -0.381623 -0.827391 -0.412053
    outer loop
      vertex -0.0550557 0.0266986 -0.0408397
      vertex -0.0391566 0.0254127 -0.0529825
      vertex -0.0532263 0.0250174 -0.0391583
    endloop
  endfacet
  facet normal -0.733346 0.481051 -0.480411
    outer loop
      vertex -0.0703925 0.0164285 -0.0277118
      vertex -0.0553005 0.0408423 -0.0263034
      vertex -0.0550557 0.0266986 -0.0408397
    endloop
  endfacet
  facet normal 0.725485 -0.486089 0.487226
    outer loop
      vertex -0.0529835 0.0391577 -0.0254126
      vertex -0.0679475 0.0146995 -0.0275322
      vertex -0.0532263 0.0250174 -0.0391583
    endloop
  endfacet
  facet normal -0.0716607 -0.743246 -0.665169
    outer loop
      vertex -0.0703925 0.0164285 -0.0277118
      vertex -0.0550557 0.0266986 -0.0408397
      vertex -0.0532263 0.0250174 -0.0391583
    endloop
  endfacet
  facet normal -0.293445 -0.499662 -0.815002
    outer loop
      vertex -0.0703925 0.0164285 -0.0277118
      vertex -0.0532263 0.0250174 -0.0391583
      vertex -0.0679475 0.0146995 -0.0275322
    endloop
  endfacet
  facet normal -0.832937 0.501395 0.234133
    outer loop
      vertex -0.0703925 0.0164285 -0.0277118
      vertex -0.0602913 0.0260172 -0.0123106
      vertex -0.0553005 0.0408423 -0.0263034
    endloop
  endfacet
  facet normal 0.837001 -0.491193 -0.241162
    outer loop
      vertex -0.0584347 0.0241268 -0.0137174
      vertex -0.0679475 0.0146995 -0.0275322
      vertex -0.0529835 0.0391577 -0.0254126
    endloop
  endfacet
  facet normal 0.751453 0.301131 0.587059
    outer loop
      vertex -0.0553005 0.0408423 -0.0263034
      vertex -0.0602913 0.0260172 -0.0123106
      vertex -0.0584347 0.0241268 -0.0137174
    endloop
  endfacet
  facet normal 0.115256 0.583619 0.803806
    outer loop
      vertex -0.0553005 0.0408423 -0.0263034
      vertex -0.0584347 0.0241268 -0.0137174
      vertex -0.0529835 0.0391577 -0.0254126
    endloop
  endfacet
  facet normal -0.755982 0.648044 0.092358
    outer loop
      vertex -0.08 0.00113105 0.000984489
      vertex -0.0602913 0.0260172 -0.0123106
      vertex -0.0703925 0.0164285 -0.0277118
    endloop
  endfacet
  facet normal 0.74448 -0.66505 -0.0588113
    outer loop
      vertex -0.0584347 0.0241268 -0.0137174
      vertex -0.08 -0.00114105 -0.000974489
      vertex -0.0679475 0.0146995 -0.0275322
    endloop
  endfacet
  facet normal -0.462194 -0.708965 -0.532677
    outer loop
      vertex -0.08 0.00113105 0.000984489
      vertex -0.0703925 0.0164285 -0.0277118
      vertex -0.0679475 0.0146995 -0.0275322
    endloop
  endfacet
  facet normal -0.929844 0.240271 -0.278675
    outer loop
      vertex -0.08 0.00113105 0.000984489
      vertex -0.0679475 0.0146995 -0.0275322
      vertex -0.08 -0.00114105 -0.000974489
    endloop
  endfacet
  facet normal -0.0048963 0.474216 0.880395
    outer loop
      vertex -0.08 0.00113105 0.000984489
      vertex -0.0599999 0.000688049 0.00133433
      vertex -0.0602913 0.0260172 -0.0123106
    endloop
  endfacet
  facet normal -0.00585759 -0.446295 -0.894867
    outer loop
      vertex -0.0600001 -0.000694049 -0.00132833
      vertex -0.08 -0.00114105 -0.000974489
      vertex -0.0584347 0.0241268 -0.0137174
    endloop
  endfacet
  facet normal 0.999949 0.00896949 -0.00470332
    outer loop
      vertex -0.0602913 0.0260172 -0.0123106
      vertex -0.0599999 0.000688049 0.00133433
      vertex -0.0600001 -0.000694049 -0.00132833
    endloop
  endfacet
  facet normal 0.73846 0.263281 0.620773
    outer loop
      vertex -0.0602913 0.0260172 -0.0123106
      vertex -0.0600001 -0.000694049 -0.00132833
      vertex -0.0584347 0.0241268 -0.0137174
    endloop
  endfacet
  facet normal -0.480525 0.733627 -0.480506
    outer loop
      vertex -0.0277118 0.0703925 -0.0164285
      vertex -0.0264223 0.0552355 -0.0408594
      vertex -0.0408239 0.0550884 -0.0266819
    endloop
  endfacet
  facet normal 0.486842 -0.72535 0.486674
    outer loop
      vertex -0.0252957 0.0530485 -0.0391426
      vertex -0.0275322 0.0679474 -0.0146995
      vertex -0.0391781 0.0531956 -0.0250361
    endloop
  endfacet
  facet normal -0.66394 0.0700466 0.744498
    outer loop
      vertex -0.0277118 0.0703925 -0.0164285
      vertex -0.0408239 0.0550884 -0.0266819
      vertex -0.0391781 0.0531956 -0.0250361
    endloop
  endfacet
  facet normal -0.815068 0.293403 0.499579
    outer loop
      vertex -0.0277118 0.0703925 -0.0164285
      vertex -0.0391781 0.0531956 -0.0250361
      vertex -0.0275322 0.0679474 -0.0146995
    endloop
  endfacet
  facet normal 0.231942 0.832013 -0.503942
    outer loop
      vertex -0.0277118 0.0703925 -0.0164285
      vertex -0.0123106 0.0602913 -0.0260172
      vertex -0.0264223 0.0552355 -0.0408594
    endloop
  endfacet
  facet normal -0.243659 -0.837893 0.488432
    outer loop
      vertex -0.0137174 0.0584347 -0.0241268
      vertex -0.0275322 0.0679474 -0.0146995
      vertex -0.0252957 0.0530485 -0.0391426
    endloop
  endfacet
  facet normal 0.586565 -0.751624 -0.301666
    outer loop
      vertex -0.0264223 0.0552355 -0.0408594
      vertex -0.0123106 0.0602913 -0.0260172
      vertex -0.0137174 0.0584347 -0.0241268
    endloop
  endfacet
  facet normal 0.800327 -0.0563054 -0.596914
    outer loop
      vertex -0.0264223 0.0552355 -0.0408594
      vertex -0.0137174 0.0584347 -0.0241268
      vertex -0.0252957 0.0530485 -0.0391426
    endloop
  endfacet
  facet normal 0.0923585 0.755982 -0.648044
    outer loop
      vertex 0.000984489 0.08 -0.00113105
      vertex -0.0123106 0.0602913 -0.0260172
      vertex -0.0277118 0.0703925 -0.0164285
    endloop
  endfacet
  facet normal -0.0588109 -0.74448 0.665049
    outer loop
      vertex -0.0137174 0.0584347 -0.0241268
      vertex -0.000974489 0.08 0.00114105
      vertex -0.0275322 0.0679474 -0.0146995
    endloop
  endfacet
  facet normal -0.532677 0.462196 0.708964
    outer loop
      vertex 0.000984489 0.08 -0.00113105
      vertex -0.0277118 0.0703925 -0.0164285
      vertex -0.0275322 0.0679474 -0.0146995
    endloop
  endfacet
  facet normal -0.278675 0.929844 -0.240271
    outer loop
      vertex 0.000984489 0.08 -0.00113105
      vertex -0.0275322 0.0679474 -0.0146995
      vertex -0.000974489 0.08 0.00114105
    endloop
  endfacet
  facet normal 0.880395 0.00489629 -0.474216
    outer loop
      vertex 0.000984489 0.08 -0.00113105
      vertex 0.00133433 0.0599999 -0.000688049
      vertex -0.0123106 0.0602913 -0.0260172
    endloop
  endfacet
  facet normal -0.894867 0.0058576 0.446295
    outer loop
      vertex -0.00132833 0.0600001 0.000694049
      vertex -0.000974489 0.08 0.00114105
      vertex -0.0137174 0.0584347 -0.0241268
    endloop
  endfacet
  facet normal -0.00470332 -0.999949 -0.0089695
    outer loop
      vertex -0.0123106 0.0602913 -0.0260172
      vertex 0.00133433 0.0599999 -0.000688049
      vertex -0.00132833 0.0600001 0.000694049
    endloop
  endfacet
  facet normal 0.620773 -0.738461 -0.26328
    outer loop
      vertex -0.0123106 0.0602913 -0.0260172
      vertex -0.00132833 0.0600001 0.000694049
      vertex -0.0137174 0.0584347 -0.0241268
    endloop
  endfacet
  facet normal -0.481197 0.479961 -0.733544
    outer loop
      vertex -0.0164285 0.0277118 -0.0703925
      vertex -0.0408414 0.0263033 -0.0552995
      vertex -0.0266809 0.0408228 -0.0550885
    endloop
  endfacet
  facet normal 0.486072 -0.487453 0.725344
    outer loop
      vertex -0.0391566 0.0254127 -0.0529825
      vertex -0.0146995 0.0275322 -0.0679475
      vertex -0.0250351 0.0391772 -0.0531955
    endloop
  endfacet
  facet normal 0.744472 0.663965 -0.0700876
    outer loop
      vertex -0.0164285 0.0277118 -0.0703925
      vertex -0.0266809 0.0408228 -0.0550885
      vertex -0.0250351 0.0391772 -0.0531955
    endloop
  endfacet
  facet normal 0.499557 0.815079 -0.293409
    outer loop
      vertex -0.0164285 0.0277118 -0.0703925
      vertex -0.0250351 0.0391772 -0.0531955
      vertex -0.0146995 0.0275322 -0.0679475
    endloop
  endfacet
  facet normal -0.50144 -0.234095 -0.832921
    outer loop
      vertex -0.0164285 0.0277118 -0.0703925
      vertex -0.0260172 0.0123106 -0.0602913
      vertex -0.0408414 0.0263033 -0.0552995
    endloop
  endfacet
  facet normal 0.491243 0.241117 0.836985
    outer loop
      vertex -0.0241268 0.0137174 -0.0584347
      vertex -0.0146995 0.0275322 -0.0679475
      vertex -0.0391566 0.0254127 -0.0529825
    endloop
  endfacet
  facet normal -0.301112 -0.587076 0.751448
    outer loop
      vertex -0.0408414 0.0263033 -0.0552995
      vertex -0.0260172 0.0123106 -0.0602913
      vertex -0.0241268 0.0137174 -0.0584347
    endloop
  endfacet
  facet normal -0.583613 -0.803796 0.11536
    outer loop
      vertex -0.0408414 0.0263033 -0.0552995
      vertex -0.0241268 0.0137174 -0.0584347
      vertex -0.0391566 0.0254127 -0.0529825
    endloop
  endfacet
  facet normal -0.648044 -0.0923583 -0.755982
    outer loop
      vertex -0.00113105 -0.000984489 -0.08
      vertex -0.0260172 0.0123106 -0.0602913
      vertex -0.0164285 0.0277118 -0.0703925
    endloop
  endfacet
  facet normal 0.66505 0.0588111 0.74448
    outer loop
      vertex -0.0241268 0.0137174 -0.0584347
      vertex 0.00114105 0.000974489 -0.08
      vertex -0.0146995 0.0275322 -0.0679475
    endloop
  endfacet
  facet normal 0.708944 0.532678 -0.462225
    outer loop
      vertex -0.00113105 -0.000984489 -0.08
      vertex -0.0164285 0.0277118 -0.0703925
      vertex -0.0146995 0.0275322 -0.0679475
    endloop
  endfacet
  facet normal -0.24027 0.278674 -0.929845
    outer loop
      vertex -0.00113105 -0.000984489 -0.08
      vertex -0.0146995 0.0275322 -0.0679475
      vertex 0.00114105 0.000974489 -0.08
    endloop
  endfacet
  facet normal -0.474216 -0.880395 -0.0048963
    outer loop
      vertex -0.00113105 -0.000984489 -0.08
      vertex -0.000688049 -0.00133433 -0.0599999
      vertex -0.0260172 0.0123106 -0.0602913
    endloop
  endfacet
  facet normal 0.446295 0.894867 -0.00585761
    outer loop
      vertex 0.000694049 0.00132833 -0.0600001
      vertex 0.00114105 0.000974489 -0.08
      vertex -0.0241268 0.0137174 -0.0584347
    endloop
  endfacet
  facet normal -0.00896914 0.00470313 0.999949
    outer loop
      vertex -0.0260172 0.0123106 -0.0602913
      vertex -0.000688049 -0.00133433 -0.0599999
      vertex 0.000694049 0.00132833 -0.0600001
    endloop
  endfacet
  facet normal -0.263281 -0.620773 0.73846
    outer loop
      vertex -0.0260172 0.0123106 -0.0602913
      vertex 0.000694049 0.00132833 -0.0600001
      vertex -0.0241268 0.0137174 -0.0584347
    endloop
  endfacet
endsolid
